<svg xmlns="http://www.w3.org/2000/svg" xmlns:xlink="http://www.w3.org/1999/xlink" width="476.83" height="160.871" viewBox="0 0 476.83 160.871">
  <defs>
    <clipPath id="clip-path">
      <path id="Path_1" data-name="Path 1" d="M474.1,433.518c0,30.4,25.081,55.131,55.9,55.131a52.959,52.959,0,0,0,33.776-11.96v10.386h19.813V456.7l0-.761-.223-.288-11.435-14.988-2.507,2.958c-.065.082-6.9,8.133-9.377,10.919C550.921,464.794,541.093,469.78,530,469.78c-20.316,0-36.844-16.269-36.844-36.263S509.684,397.255,530,397.255A36.58,36.58,0,0,1,558.64,410.7c4.952,6.122,11.094,14.667,17.6,23.711,9.594,13.35,19.517,27.16,27.21,35.419,11.542,12.385,26.393,19.207,41.832,19.207A55.163,55.163,0,0,0,694.9,457.993H672.49a36.423,36.423,0,0,1-27.211,12.25c-10.533,0-20.671-4.91-28.544-13.827-6.692-7.575-15.637-19.754-24.289-31.531-3.051-4.154-6.029-8.206-8.858-11.994V378.786H563.775V390.5c-9.9-7.563-22.208-12.109-33.776-12.109-30.823,0-55.9,24.732-55.9,55.132" transform="translate(-474.095 -378.386)" fill="#fff"/>
    </clipPath>
    <clipPath id="clip-path-2">
      <path id="Path_2" data-name="Path 2" d="M516.418,408.005l-1.184,1.808,11.455,15.8,2.529-3.579c16.429-23.26,29.991-26.246,39.977-26.246a36.436,36.436,0,0,1,35.132,26.52l-49.3.037V441.5H623.9l.319-2.775A55.441,55.441,0,0,0,569.2,376.92c-13.892,0-34.472,3.223-52.777,31.085" transform="translate(-515.234 -376.92)" fill="#fff"/>
    </clipPath>
    <clipPath id="clip-path-3">
      <rect id="Rectangle_4" data-name="Rectangle 4" width="476.83" height="160.871" fill="#fff"/>
    </clipPath>
    <clipPath id="clip-path-4">
      <path id="Path_4" data-name="Path 4" d="M642.652,461.07a23.358,23.358,0,0,1-8.336-6.416,28.344,28.344,0,0,1-5.138-9.946,48.086,48.086,0,0,1,0-25.738,28.37,28.37,0,0,1,5.138-9.946,23.341,23.341,0,0,1,8.336-6.41,27.045,27.045,0,0,1,11.472-2.29q12.885,0,19.78,8.643,6.9,8.731,6.917,22.887a43.742,43.742,0,0,1-1.779,12.854,27.933,27.933,0,0,1-5.138,9.946,23.385,23.385,0,0,1-8.336,6.416,29.847,29.847,0,0,1-22.916,0m-6.585-73.236a40.2,40.2,0,0,0-14.179,9.636,44.546,44.546,0,0,0-9.3,14.972,53.261,53.261,0,0,0-3.39,19.413,54.419,54.419,0,0,0,3.3,19.382,43.8,43.8,0,0,0,9.323,14.974,40.738,40.738,0,0,0,14.238,9.633,47.257,47.257,0,0,0,18.057,3.392q19.793,0,32.295-13.026,12.627-13.012,12.628-34.356a53.555,53.555,0,0,0-3.333-19.3,44.257,44.257,0,0,0-9.295-14.974,42.1,42.1,0,0,0-14.266-9.69,46.564,46.564,0,0,0-18.029-3.446,47.252,47.252,0,0,0-18.057,3.387" transform="translate(-609.201 -384.447)" fill="#fff"/>
    </clipPath>
  </defs>
  <g id="logo-home" transform="translate(-474.095 -361.014)">
    <g id="Group_2" data-name="Group 2" transform="translate(474.095 410.004)">
      <g id="Group_1" data-name="Group 1" clip-path="url(#clip-path)">
        <rect id="Rectangle_1" data-name="Rectangle 1" width="220.802" height="110.652" transform="translate(0 0)" fill="#fff"/>
      </g>
    </g>
    <g id="Group_4" data-name="Group 4" transform="translate(590.108 405.869)">
      <g id="Group_3" data-name="Group 3" clip-path="url(#clip-path-2)">
        <rect id="Rectangle_2" data-name="Rectangle 2" width="109.346" height="64.581" fill="#fff"/>
      </g>
    </g>
    <g id="Group_6" data-name="Group 6" transform="translate(474.095 361.014)">
      <g id="Group_5" data-name="Group 5" clip-path="url(#clip-path-3)">
        <path id="Path_3" data-name="Path 3" d="M616.119,437.979A36.132,36.132,0,0,0,627.588,427.3c2.685-4.1,4.044-9.382,4.044-15.908q0-26.277-31.39-26.305H566.9v91.177H583.57V442.387H600.5l18.872,33.877h17.318Zm-5.849-14.8c-2.6,2.4-7.431,3.587-14.467,3.587H583.57V399.046h12.884q10.169,0,13.928,3.305c2.543,2.2,3.784,5.623,3.784,10.228q0,7.035-3.9,10.595" transform="translate(-305.186 -317.2)" fill="#fff"/>
        <rect id="Rectangle_3" data-name="Rectangle 3" width="16.666" height="91.152" transform="translate(346.491 67.898)" fill="#fff"/>
      </g>
    </g>
    <g id="Group_8" data-name="Group 8" transform="translate(855.097 427.096)">
      <g id="Group_7" data-name="Group 7" clip-path="url(#clip-path-4)">
        <rect id="Rectangle_5" data-name="Rectangle 5" width="89.846" height="94.79" transform="translate(0 0)" fill="#fff"/>
      </g>
    </g>
    <g id="Group_9" data-name="Group 9" transform="translate(735.833 371.395)">
      <path id="Path_5" data-name="Path 5" d="M593.307,402.864h-3.531l-3.734-8.8H574.137l-3.7,8.8h-3.531l13.209-29.9ZM584.873,391.3l-4.754-11.229L575.361,391.3Zm-.355-24.777-5.44,5.087-1.134-1.241,4.977-5.674Z" transform="translate(-566.909 -364.695)" fill="#fff"/>
    </g>
    <g id="Group_10" data-name="Group 10" transform="translate(762.922 379.669)">
      <path id="Path_6" data-name="Path 6" d="M604.972,382.644q0,6.992-3.742,11.156t-10.189,4.162a13.829,13.829,0,0,1-10.4-4.284,16.289,16.289,0,0,1-.02-21.647,13.561,13.561,0,0,1,10.271-4.323,15.468,15.468,0,0,1,6.977,1.5,12.893,12.893,0,0,1,5.006,4.436l-2.4,1.94A10.357,10.357,0,0,0,596.5,372a11.834,11.834,0,0,0-5.462-1.241,10.58,10.58,0,0,0-8.127,3.474,12.452,12.452,0,0,0-3.206,8.787,11.8,11.8,0,0,0,3.263,8.46,10.68,10.68,0,0,0,8.071,3.429,10.358,10.358,0,0,0,7.188-2.637,9.543,9.543,0,0,0,3.232-6.633h-8.971v-3Z" transform="translate(-576.515 -367.483)" fill="#fff"/>
      <path id="Path_7" data-name="Path 7" d="M607.935,386.114q0,5.82-2.479,8.646t-7.569,2.826q-5.038,0-7.552-2.862t-2.518-8.61v-18.2h3.195v18.855q0,3.921,1.7,5.84a7.95,7.95,0,0,0,10.347.02q1.679-1.9,1.678-5.86V367.916h3.2Z" transform="translate(-555.945 -367.107)" fill="#fff"/>
      <path id="Path_8" data-name="Path 8" d="M622.037,397.524h-3.531l-3.731-8.8H602.867l-3.694,8.8h-3.53l13.206-29.9Zm-8.432-11.565-4.758-11.229-4.755,11.229Z" transform="translate(-541.703 -367.629)" fill="#fff"/>
      <path id="Path_9" data-name="Path 9" d="M622.365,389.618a7.975,7.975,0,0,1-2.38,6.111,9.114,9.114,0,0,1-6.5,2.233,9.212,9.212,0,0,1-4.966-1.32,7.593,7.593,0,0,1-3.094-3.655l2.284-1.977a5.551,5.551,0,0,0,2.236,2.865,6.6,6.6,0,0,0,3.672,1.035,5.787,5.787,0,0,0,4.075-1.356,5.4,5.4,0,0,0,.113-7.3,16.215,16.215,0,0,0-4.58-3.079,16.575,16.575,0,0,1-5.3-3.711,6.936,6.936,0,0,1-1.5-4.577,6.722,6.722,0,0,1,2.157-5.2,9.064,9.064,0,0,1,9.492-1.122,7.51,7.51,0,0,1,2.769,2.572l-2.177,2.053a4.423,4.423,0,0,0-1.827-1.791,5.652,5.652,0,0,0-2.7-.637,4.8,4.8,0,0,0-3.308,1.074,3.685,3.685,0,0,0-1.21,2.9,4.3,4.3,0,0,0,.919,2.789,12.98,12.98,0,0,0,3.632,2.62l.169.073Q622.359,384.585,622.365,389.618Z" transform="translate(-523.904 -367.483)" fill="#fff"/>
      <path id="Path_10" data-name="Path 10" d="M638.326,382.5q0,7.174-4.061,10.837T622.313,397h-5.445V367.916H622.5q7.657,0,11.74,3.793T638.326,382.5Zm-3.2-.039q0-5.613-3.158-8.553t-9.216-2.939h-2.693v22.983h2.361q6.556,0,9.63-2.809T635.13,382.459Z" transform="translate(-503.072 -367.107)" fill="#fff"/>
      <path id="Path_11" data-name="Path 11" d="M655.17,382.836a14.651,14.651,0,0,1-4.346,10.756,15.238,15.238,0,0,1-21.373-.008,15.587,15.587,0,0,1-.034-21.542,15.435,15.435,0,0,1,21.443,0A14.692,14.692,0,0,1,655.17,382.836Zm-3.192,0a11.84,11.84,0,0,0-3.4-8.593,11.315,11.315,0,0,0-8.435-3.483,11.1,11.1,0,0,0-8.581,3.542,12.171,12.171,0,0,0-3.251,8.533,11.847,11.847,0,0,0,3.381,8.59,11.948,11.948,0,0,0,16.878-.008A11.83,11.83,0,0,0,651.978,382.836Z" transform="translate(-488.064 -367.483)" fill="#fff"/>
    </g>
  </g>
</svg>
