<svg width="107" height="36" viewBox="0 0 107 36" fill="none" xmlns="http://www.w3.org/2000/svg">
<g clip-path="url(#clip0_156_60)">
<mask id="mask0_156_60" style="mask-type:luminance" maskUnits="userSpaceOnUse" x="0" y="10" width="50" height="26">
<path d="M0.00120193 23.3006C0.00120193 30.1036 5.61387 35.6379 12.5106 35.6379C15.2645 35.6511 17.9371 34.7047 20.0691 32.9615V35.2857H24.5028V28.4883V28.318L24.4529 28.2536L21.894 24.8995L21.333 25.5615C21.3184 25.5798 19.7889 27.3815 19.2346 28.005C17.1923 30.2996 14.993 31.4154 12.5106 31.4154C7.96425 31.4154 4.26559 27.7747 4.26559 23.3004C4.26559 18.8261 7.96425 15.1856 12.5106 15.1856C13.736 15.1754 14.948 15.4405 16.0573 15.9612C17.1665 16.482 18.1447 17.2451 18.9197 18.1944C20.0279 19.5644 21.4023 21.4766 22.8583 23.5004C25.0052 26.4879 27.2258 29.5784 28.9474 31.4266C31.5303 34.1981 34.8536 35.7247 38.3086 35.7247C40.6247 35.725 42.8943 35.0737 44.8577 33.8453C46.8212 32.6168 48.3995 30.8607 49.4122 28.7777H44.3973C43.6334 29.6387 42.6958 30.3281 41.6462 30.8006C40.5967 31.2731 39.4589 31.5179 38.3079 31.519C35.9508 31.519 33.6821 30.4202 31.9203 28.4248C30.4228 26.7296 28.421 24.0042 26.4849 21.3687C25.8021 20.4391 25.1357 19.5323 24.5026 18.6847V11.0526H20.0688V13.674C17.8534 11.9815 15.0991 10.9642 12.5104 10.9642C5.61276 10.9642 0.000976562 16.4988 0.000976562 23.3017" fill="white"/>
</mask>
<g mask="url(#mask0_156_60)">
<path d="M49.4115 10.9631H0V35.725H49.4115V10.9631Z" fill="#C1CFFF"/>
</g>
<mask id="mask1_156_60" style="mask-type:luminance" maskUnits="userSpaceOnUse" x="25" y="10" width="26" height="15">
<path d="M26.2266 16.994L25.9617 17.3986L28.5251 20.9343L29.091 20.1334C32.7675 14.9283 35.8025 14.2601 38.0372 14.2601C39.8155 14.2566 41.5462 14.8346 42.9656 15.906C44.3849 16.9774 45.4151 18.4835 45.8991 20.1947L34.8666 20.203V24.4896H50.2791L50.3505 23.8686C50.5512 22.1317 50.3826 20.3721 49.8556 18.705C49.3286 17.0379 48.4552 15.501 47.2927 14.1951C46.1301 12.8891 44.7047 11.8437 43.1098 11.1272C41.515 10.4108 39.7867 10.0395 38.0383 10.0377C34.9295 10.0377 30.3241 10.759 26.2277 16.994" fill="white"/>
</mask>
<g mask="url(#mask1_156_60)">
<path d="M50.4313 10.0377H25.9617V24.4898H50.4313V10.0377Z" fill="#C1CFFF"/>
</g>
<mask id="mask2_156_60" style="mask-type:luminance" maskUnits="userSpaceOnUse" x="0" y="0" width="107" height="36">
<path d="M106.706 0H0V36H106.706V0Z" fill="white"/>
</mask>
<g mask="url(#mask2_156_60)">
<path d="M69.5812 27.0281C70.6013 26.4289 71.4774 25.6131 72.1478 24.6384C72.7486 23.7209 73.0527 22.5389 73.0527 21.0785C73.0527 17.1582 70.7112 15.1961 66.0282 15.1919H58.5669V35.5956H62.2973V28.0146H66.086L70.3092 35.5956H74.1846L69.5812 27.0281ZM68.2723 23.7162C67.6905 24.2532 66.6094 24.5189 65.0348 24.5189H62.2973V18.3156H65.1805C66.6976 18.3156 67.7366 18.5622 68.2974 19.0552C68.8664 19.5476 69.1442 20.3136 69.1442 21.3441C69.1442 22.3936 68.8532 23.1839 68.2714 23.7151" fill="#C1CFFF"/>
<path d="M81.2679 15.1943H77.5383V35.5925H81.2679V15.1943Z" fill="#C1CFFF"/>
</g>
<mask id="mask3_156_60" style="mask-type:luminance" maskUnits="userSpaceOnUse" x="85" y="14" width="21" height="23">
<path d="M92.7469 31.9348C92.0241 31.6043 91.3861 31.1132 90.8815 30.499C90.3541 29.8409 89.9632 29.0842 89.7317 28.2733C89.2084 26.389 89.2084 24.3978 89.7317 22.5136C89.9633 21.7027 90.3542 20.946 90.8815 20.2878C91.3861 19.674 92.0241 19.1834 92.7469 18.8534C93.5551 18.4973 94.4313 18.3224 95.3142 18.3409C97.2365 18.3409 98.7119 18.9857 99.7406 20.2751C100.77 21.5776 101.286 23.2849 101.288 25.3968C101.3 26.3701 101.165 27.3396 100.89 28.2733C100.661 29.0852 100.27 29.8423 99.7406 30.499C99.2359 31.1131 98.5979 31.6041 97.8751 31.9348C97.0625 32.2726 96.1911 32.4466 95.311 32.4466C94.431 32.4466 93.5596 32.2726 92.7469 31.9348ZM91.2734 15.5459C90.0729 16.0282 88.9907 16.7637 88.1003 17.7023C87.1904 18.6693 86.4828 19.8084 86.0192 21.0527C85.4983 22.441 85.241 23.9143 85.2606 25.397C85.2413 26.8756 85.4916 28.3454 85.999 29.7343C86.46 30.9812 87.1699 32.1213 88.0854 33.0852C88.982 34.0223 90.0683 34.7572 91.2716 35.2409C92.5559 35.7559 93.9288 36.0138 95.3124 36C98.2653 36 100.674 35.0283 102.539 33.085C104.423 31.1438 105.365 28.581 105.365 25.3968C105.384 23.9235 105.131 22.4594 104.619 21.0778C104.158 19.8327 103.45 18.6931 102.539 17.7269C101.636 16.7915 100.549 16.0532 99.347 15.5584C98.0666 15.0362 96.6951 14.7741 95.3124 14.7873C93.9288 14.7731 92.5559 15.0306 91.2716 15.5452" fill="white"/>
</mask>
<g mask="url(#mask3_156_60)">
<path d="M105.367 14.788H85.2612V36.0002H105.367V14.788Z" fill="#C1CFFF"/>
</g>
<path d="M64.4796 10.8646H63.6894L62.8538 8.89532H60.1897L59.3617 10.8646H58.5715L61.5275 4.17352L64.4796 10.8646ZM62.5922 8.27678L61.5284 5.76394L60.4636 8.27678H62.5922ZM62.5128 2.73215L61.2954 3.87052L61.0416 3.59281L62.1554 2.32307L62.5128 2.73215Z" fill="#C1CFFF"/>
<path d="M71.0024 7.56741C71.0024 8.61053 70.7233 9.44269 70.165 10.0639C69.6068 10.6851 68.8467 10.9956 67.8849 10.9953C67.4515 11.0075 67.0203 10.9284 66.6194 10.7633C66.2185 10.5981 65.8567 10.3505 65.5576 10.0366C64.9636 9.36986 64.6351 8.50829 64.6343 7.61536C64.6335 6.72243 64.9604 5.86026 65.5531 5.19241C65.8458 4.87755 66.2021 4.62848 66.5984 4.46171C66.9946 4.29493 67.4218 4.21425 67.8516 4.225C68.3911 4.21367 68.9257 4.32862 69.4129 4.56068C69.8671 4.78726 70.2536 5.12969 70.5332 5.55337L69.9961 5.98751C69.7749 5.64685 69.4682 5.37026 69.1065 5.18547C68.7272 4.99642 68.308 4.90119 67.8843 4.90776C67.543 4.89856 67.2038 4.96328 66.8898 5.09746C66.5759 5.23165 66.2947 5.43214 66.0656 5.68518C65.58 6.2225 65.3227 6.92776 65.3481 7.65155C65.339 7.99967 65.3988 8.34617 65.5241 8.67108C65.6494 8.996 65.8378 9.29292 66.0783 9.54474C66.3079 9.79319 66.5876 9.99006 66.899 10.1223C67.2104 10.2546 67.5463 10.3193 67.8845 10.3121C68.4763 10.328 69.0519 10.1169 69.493 9.72198C69.7061 9.53495 69.8797 9.30738 70.0039 9.05253C70.1281 8.79769 70.2003 8.52067 70.2163 8.23763H68.2087V7.56629L71.0024 7.56741Z" fill="#C1CFFF"/>
<path d="M76.2686 8.42807C76.2686 9.29635 76.0837 9.94128 75.7139 10.3629C75.344 10.7845 74.7795 10.9953 74.0201 10.9953C73.2685 10.9953 72.7051 10.7818 72.3301 10.3548C71.955 9.92785 71.7672 9.2856 71.7666 8.42807V4.35524H72.4816V8.57465C72.4816 9.15961 72.6084 9.59524 72.862 9.88153C73.1839 10.1585 73.5943 10.3112 74.0189 10.312C74.4436 10.3128 74.8545 10.1617 75.1775 9.88601C75.428 9.60255 75.5531 9.16543 75.553 8.57465V4.35568H76.2691L76.2686 8.42807Z" fill="#C1CFFF"/>
<path d="M82.6116 10.8646H81.8214L80.9865 8.89533H78.3217L77.495 10.8646H76.7051L79.6603 4.17353L82.6116 10.8646ZM80.7246 8.27657L79.6599 5.76373L78.5958 8.27657H80.7246Z" fill="#C1CFFF"/>
<path d="M86.6681 9.12806C86.6813 9.38073 86.6407 9.63333 86.5488 9.8691C86.457 10.1049 86.3161 10.3184 86.1355 10.4956C85.7344 10.8456 85.2124 11.0249 84.6809 10.9953C84.2899 11.0042 83.9045 10.9018 83.5696 10.6999C83.2566 10.5091 83.0137 10.2222 82.8772 9.88198L83.3883 9.43956C83.4784 9.70337 83.6547 9.92918 83.8887 10.0807C84.1338 10.2371 84.4197 10.3177 84.7104 10.3123C85.0421 10.3319 85.3685 10.2232 85.6223 10.0089C85.8303 9.78914 85.9482 9.49944 85.9529 9.19698C85.9576 8.89452 85.8486 8.6013 85.6476 8.37525C85.3479 8.0887 85.0012 7.85565 84.6227 7.68623C84.1766 7.49001 83.7736 7.20781 83.4367 6.85577C83.206 6.56542 83.0869 6.20208 83.101 5.83152C83.0925 5.6142 83.1313 5.39762 83.2146 5.19673C83.298 4.99584 83.4239 4.8154 83.5837 4.66786C83.8792 4.43228 84.2346 4.28394 84.61 4.23958C84.9853 4.19522 85.3655 4.25659 85.7078 4.41678C85.96 4.55268 86.1734 4.7508 86.3275 4.99234L85.8403 5.45177C85.7465 5.28081 85.6042 5.14138 85.4314 5.05097C85.245 4.954 85.0373 4.90501 84.8272 4.90843C84.5591 4.89318 84.295 4.97893 84.087 5.14877C83.9968 5.23029 83.9257 5.33075 83.8789 5.44295C83.8321 5.55514 83.8107 5.67629 83.8162 5.79773C83.8094 6.02346 83.8822 6.2444 84.0218 6.42186C84.2567 6.66291 84.5318 6.8613 84.8346 7.00817L84.8724 7.0245C86.0686 7.67601 86.6672 8.3772 86.6681 9.12806Z" fill="#C1CFFF"/>
<path d="M94.9015 7.61932C94.9015 8.6896 94.5986 9.49797 93.9927 10.0444C93.3869 10.5909 92.4953 10.8642 91.3181 10.8642H90.0996V4.35569H91.36C92.5023 4.35569 93.378 4.63863 93.9871 5.2045C94.5963 5.77037 94.9011 6.57531 94.9015 7.61932ZM94.1854 7.61059C94.1854 6.7732 93.9499 6.1352 93.4787 5.69659C93.0076 5.25797 92.3201 5.03874 91.4163 5.03889H90.8137V10.1821H91.342C92.3201 10.1821 93.0385 9.97254 93.4971 9.55347C93.9557 9.1344 94.1854 8.48663 94.1863 7.61015L94.1854 7.61059Z" fill="#C1CFFF"/>
<path d="M102.03 7.61037C102.04 8.05665 101.959 8.50034 101.792 8.91423C101.624 9.32812 101.374 9.70351 101.057 10.0174C100.419 10.6446 99.5599 10.996 98.6651 10.9956C97.7704 10.9953 96.9116 10.6433 96.2741 10.0156C95.6525 9.3675 95.3049 8.50469 95.3035 7.60675C95.3021 6.70881 95.647 5.84491 96.2665 5.19487C96.9104 4.57308 97.7706 4.22557 98.6657 4.22557C99.5609 4.22557 100.421 4.57308 101.065 5.19487C101.382 5.51073 101.63 5.88786 101.796 6.30319C101.962 6.71852 102.041 7.16332 102.03 7.61037ZM101.315 7.61037C101.324 7.25521 101.261 6.90195 101.13 6.5716C100.999 6.24125 100.804 5.94056 100.554 5.68742C100.311 5.43356 100.018 5.23315 99.6926 5.09896C99.3676 4.96476 99.0182 4.89973 98.6667 4.90798C98.3084 4.89366 97.9512 4.95709 97.6198 5.09391C97.2883 5.23074 96.9904 5.43772 96.7465 5.70062C96.2653 6.21859 96.0044 6.90334 96.0189 7.61015C96.01 7.96489 96.0723 8.31782 96.2023 8.64802C96.3323 8.97822 96.5272 9.27896 96.7756 9.53243C97.2771 10.0323 97.9563 10.3129 98.6644 10.3125C99.3725 10.3122 100.052 10.031 100.553 9.53064C100.802 9.27804 100.998 8.97787 101.129 8.64798C101.26 8.3181 101.323 7.96523 101.315 7.61037Z" fill="#C1CFFF"/>
</g>
<defs>
<clipPath id="clip0_156_60">
<rect width="106.706" height="36" fill="white"/>
</clipPath>
</defs>
</svg>
