<svg width="151" height="36" viewBox="0 0 151 36" fill="none" xmlns="http://www.w3.org/2000/svg">
<path d="M148.406 28.8H150.71V0H148.406V28.8ZM135.619 23.5008C135.619 20.3904 137.318 19.5264 140.371 19.0944L143.482 18.6624V24.5952C142.358 26.208 140.602 27.1584 138.845 27.1584C136.886 27.1872 135.619 26.2944 135.619 23.5008ZM139.939 11.2032C142.531 11.2032 143.482 12.4416 143.482 14.3712V16.9632L140.141 17.3952C135.562 18 133.258 19.6704 133.258 23.616C133.258 26.8128 134.64 29.1744 138.154 29.1744C140.4 29.1744 142.33 28.4256 143.654 26.4672L143.885 28.8H145.901L145.786 24.624V14.6592C145.757 11.1744 144.259 9.36 139.939 9.36C135.446 9.36 134.006 11.232 134.006 14.5728L136.397 14.8896C136.368 12.3552 137.318 11.2032 139.939 11.2032ZM123.005 11.6928H125.251V25.344C125.251 27.7344 126.374 29.1744 129.283 29.1744C130.32 29.1744 131.098 29.0016 131.558 28.8L131.386 26.784C131.069 26.8992 130.406 27.1008 129.571 27.1008C128.39 27.1008 127.555 26.7552 127.555 24.9984V11.6928H131.731V9.7056H127.555V4.4928L125.251 4.6656V9.7056H123.005V11.6928ZM121.392 1.9584H118.656V4.6944H121.392V1.9584ZM118.858 28.8H121.162V9.7344H118.858V28.8ZM105.696 14.1408C106.963 12.4704 108.288 11.4336 110.131 11.4336C113.53 11.4336 114.192 14.3136 114.192 19.2384C114.192 24.1632 113.501 27.072 110.131 27.072C108.288 27.072 106.963 26.0352 105.696 24.3648V14.1408ZM110.563 29.1744C115.286 29.1744 116.611 25.488 116.611 19.2672C116.611 13.0464 115.286 9.36 110.563 9.36C108.662 9.36 106.934 10.1088 105.523 12.0672L105.293 9.7344H103.277L103.334 13.9104V36H105.667V26.7264C107.05 28.4544 108.634 29.1744 110.563 29.1744ZM90.864 23.5008C90.864 20.3904 92.5632 19.5264 95.616 19.0944L98.7264 18.6624V24.5952C97.6032 26.208 95.8464 27.1584 94.0896 27.1584C92.1024 27.1872 90.864 26.2944 90.864 23.5008ZM95.184 11.2032C97.776 11.2032 98.7264 12.4416 98.7264 14.3712V16.9632L95.3856 17.3952C90.8064 18 88.5024 19.6704 88.5024 23.616C88.5024 26.8128 89.8848 29.1744 93.3984 29.1744C95.6448 29.1744 97.5744 28.4256 98.8992 26.4672L99.1296 28.8H101.146L101.03 24.624V14.6592C101.002 11.1744 99.504 9.36 95.184 9.36C90.6912 9.36 89.2512 11.232 89.2512 14.5728L91.6416 14.8896C91.6128 12.3552 92.5344 11.2032 95.184 11.2032ZM75.0816 14.7744C75.0816 6.1056 75.8304 2.5056 80.352 2.5056C83.9808 2.5056 84.7008 4.2048 84.7584 8.4096L87.1488 8.064C87.1488 3.024 85.8528 0.4032 80.4096 0.4032C74.5056 0.4032 72.7488 4.1184 72.7488 14.8032C72.7488 25.488 74.5056 29.2032 80.4096 29.2032C85.8528 29.2032 87.1488 26.5824 87.1488 21.5424L84.7584 21.1968C84.7296 25.4016 84.0096 27.1008 80.352 27.1008C75.8304 27.0432 75.0816 23.4432 75.0816 14.7744Z" fill="#C1CFFF"/>
<path d="M61.0272 22.9824C61.0272 21.024 62.0352 20.3616 63.9072 20.1024L65.9232 19.7856V23.8464C65.232 24.7968 64.2528 25.4016 63.0432 25.4016C61.7472 25.4016 61.0272 24.5952 61.0272 22.9824ZM63.8784 12.9312C65.4624 12.9312 65.9232 13.7376 65.9232 15.0336V16.7616L63.504 17.136C58.4928 17.856 56.2752 19.3824 56.2752 23.4144C56.2752 27.1008 57.6864 29.2608 61.1712 29.2608C63.5904 29.2608 65.0592 28.5984 66.3264 26.9568L66.5568 28.8576H70.8192L70.704 23.8752V15.408C70.704 10.944 69.1776 9.3312 63.9648 9.3312C58.2336 9.3312 56.9376 11.4912 56.9376 15.1776L61.776 15.7536C61.7472 13.6512 62.3808 12.9312 63.8784 12.9312ZM44.6112 13.68H46.8576V23.9904C46.8576 27.3024 48.4704 29.2032 52.3296 29.2032C54.0288 29.2032 54.8064 28.9728 55.3824 28.7712L55.1232 24.8544C54.72 24.9984 54.0288 25.1712 53.28 25.1712C52.2432 25.1712 51.552 24.768 51.552 23.3568V13.68H55.4688V9.7344H51.552V4.608L46.8288 4.6656V9.7056H44.5824V13.68H44.6112ZM42.3072 13.9104C42.7392 13.9104 43.2576 13.9392 43.5456 14.0544L43.8048 9.7056C43.3728 9.4176 42.8544 9.3312 42.2496 9.3312C40.7232 9.3312 39.2832 10.1664 38.3616 11.808L38.1024 9.7056H33.8976L33.984 14.688V28.8H38.736V15.6384C39.6864 14.544 40.8384 13.9104 42.3072 13.9104ZM22.2912 22.9824C22.2912 21.024 23.2992 20.3616 25.1712 20.1024L27.1872 19.7856V23.8464C26.496 24.7968 25.5168 25.4016 24.3072 25.4016C23.0112 25.4016 22.2912 24.5952 22.2912 22.9824ZM25.1424 12.9312C26.7264 12.9312 27.1872 13.7376 27.1872 15.0336V16.7616L24.768 17.1072C19.7568 17.8272 17.5392 19.3536 17.5392 23.3856C17.5392 27.072 18.9504 29.232 22.4352 29.232C24.8544 29.232 26.3232 28.5696 27.5904 26.928L27.8208 28.8288H32.0832L31.968 23.8464V15.408C31.968 10.944 30.4416 9.3312 25.2288 9.3312C19.4976 9.3312 18.2016 11.4912 18.2016 15.1776L23.04 15.7536C23.0112 13.6512 23.616 12.9312 25.1424 12.9312ZM4.896 14.7744C4.896 7.8624 5.5872 4.5792 8.5824 4.5792C11.2032 4.5792 11.9232 5.7024 11.9808 9.5616L16.8192 8.928C16.704 2.9664 15.0624 0.316803 8.6688 0.316803C2.736 0.316803 0 3.744 0 14.7744C0 25.8048 2.736 29.2032 8.6688 29.2032C15.0336 29.2032 16.704 26.5824 16.7616 20.592L11.9232 19.9872C11.8944 23.8464 11.1744 24.9696 8.5248 24.9696C5.5872 24.9696 4.896 21.6864 4.896 14.7744Z" fill="#C1CFFF"/>
</svg>
