<svg width="253" height="36" viewBox="0 0 253 36" fill="none" xmlns="http://www.w3.org/2000/svg">
<path d="M1.7826 17.364C2.30999 17.8516 2.91123 18.212 3.57575 18.4665C4.24027 18.7103 4.91533 18.8375 5.5904 18.8375C6.92999 18.8375 8.01642 18.4453 8.81806 17.682C9.63025 16.9188 10.0311 15.9859 10.0311 14.9258C10.0311 14.4064 9.95724 14.0354 9.79902 13.7809C9.69354 13.6113 9.56697 13.5689 9.48259 13.5689C9.32437 13.5689 9.16615 13.6749 9.00793 13.8976C8.79697 14.1626 8.51218 14.3958 8.15355 14.5866C7.80547 14.7774 7.40464 14.8728 6.94053 14.8728C6.14944 14.8728 5.52711 14.6078 5.02081 14.0672C4.52506 13.5265 4.27191 12.7527 4.27191 11.7668C4.27191 10.2509 4.73601 9.05303 5.65368 8.21557C6.57135 7.37812 7.73163 6.94349 9.11341 6.94349C10.0627 6.94349 10.7378 7.16611 11.1386 7.60073C11.5394 8.04596 11.7398 8.6608 11.7398 9.44526V26.1838C11.7398 26.4594 11.6871 26.6396 11.5922 26.7456C11.4867 26.8516 11.2863 26.9364 10.9909 26.9894C10.453 27.159 10.337 27.4665 10.337 27.6891C10.337 27.8905 10.4214 28.2191 10.9909 28.2191C11.2968 28.2191 11.7926 28.2085 12.552 28.1767C13.2693 28.1449 14.1764 28.1343 15.2523 28.1343H15.2945C16.3387 28.1343 17.2353 28.1449 17.9526 28.1767C18.712 28.2085 19.1972 28.2191 19.4715 28.2191C20.0833 28.2191 20.1676 27.8905 20.1676 27.6891C20.1676 27.4665 20.0516 27.159 19.4926 26.9894C19.2078 26.9364 19.0179 26.8622 18.9124 26.7562C18.8175 26.6608 18.7648 26.47 18.7648 26.1944V17.6926H20.6212C21.4439 17.6926 22.2139 17.8834 22.9101 18.2756C23.5957 18.6573 24.0282 19.3251 24.2181 20.2686C24.3446 20.9364 24.7138 21.0742 24.9986 21.0742C25.2517 21.0742 25.5682 20.9364 25.6526 20.2898C25.6526 19.9506 25.6315 19.4523 25.5893 18.8269C25.5471 18.212 25.526 17.5442 25.526 16.8658V16.6961C25.526 16.0177 25.5471 15.3605 25.5893 14.735C25.6315 14.1096 25.6526 13.6113 25.6526 13.2509C25.5682 12.6149 25.2517 12.4877 25.0302 12.4877C24.7349 12.4347 24.3446 12.5407 24.2286 13.2933C24.0387 14.258 23.6063 14.9046 22.9207 15.265C22.2245 15.6361 21.4439 15.8269 20.6212 15.8269H18.7648V8.48059C18.7648 8.02476 18.8281 7.70674 18.9546 7.53713C19.0707 7.37812 19.3027 7.30391 19.6402 7.30391H23.0894C23.7118 7.30391 24.3024 7.50533 24.8615 7.89755C25.4311 8.30038 25.969 8.80921 26.4542 9.39225C26.9394 9.98589 27.3824 10.6219 27.7622 11.3004C28.1419 11.9682 28.4267 12.5831 28.6271 13.1131C28.9013 13.9082 29.3232 14.0036 29.6291 13.94C29.8717 13.94 30.0616 13.8233 30.1882 13.6113C30.3042 13.4099 30.3464 13.1767 30.3148 12.9329C30.2831 12.4771 30.2409 11.8516 30.1671 11.0036C30.0933 10.1767 29.9667 8.97883 29.7663 7.35692C29.6819 6.56187 29.5975 6.00003 29.5237 5.69261C29.4393 5.32158 29.1861 5.13077 28.8064 5.13077C28.4794 5.13077 28.1313 5.17317 27.7727 5.26858C27.4246 5.35338 26.8128 5.39579 25.9585 5.39579H9.64081C8.18519 5.39579 6.84561 5.5972 5.67478 5.97882C4.50396 6.37105 3.47027 6.91169 2.62643 7.61133C1.77205 8.31098 1.11808 9.13784 0.675067 10.0813C0.232054 11.0248 0 12.0636 0 13.1661C0 14.099 0.168762 14.9258 0.506296 15.6255C0.833282 16.3251 1.2763 16.9188 1.79315 17.4064L1.7826 17.364Z" fill="#C1CFFF"/>
<path d="M104.382 24.2968C105.005 22.6961 105.532 21.3604 105.996 20.205C106.734 18.3604 107.473 16.6431 108.211 15.1166C108.939 13.5901 110.236 11.0354 111.101 9.95408C111.966 8.87281 112.926 8.02476 113.96 7.44172C114.983 6.85868 116.196 6.56186 117.546 6.56186C118.379 6.56186 119.139 6.63606 119.793 6.77387C120.457 6.91168 121.027 7.07069 121.502 7.2191C121.976 7.37811 122.367 7.52652 122.683 7.66433C123.02 7.81274 123.263 7.88695 123.421 7.88695C123.801 7.88695 124.075 7.66433 124.255 7.2191C124.413 6.81628 124.497 6.25444 124.497 5.55479C124.497 4.51592 124.107 3.61486 123.326 2.86221C122.546 2.10956 121.449 1.72794 120.057 1.72794C118.221 1.72794 116.576 2.08836 115.152 2.78801C113.738 3.48765 112.43 4.51592 111.27 5.81981C110.12 7.1237 108.57 9.95409 107.621 11.788C106.671 13.6219 105.722 15.7209 104.783 18.0318L103.897 20.3216L101.134 12.8057C101.028 12.5195 100.996 12.2544 101.039 12.0212C101.07 11.8198 101.165 11.7138 101.344 11.6714C101.777 11.5336 101.998 11.3216 101.998 11.0036C101.977 10.8127 101.861 10.4841 101.302 10.4841C100.996 10.4841 100.448 10.4947 99.6357 10.5265C98.8446 10.5583 97.9059 10.5689 96.8722 10.5689C95.8385 10.5689 92.653 10.8233 90.1953 9.76327C89.9633 9.66786 89.7207 9.63606 89.4675 9.62546C89.2249 9.57246 88.9612 9.54066 88.687 9.54066C87.9803 9.54066 87.3052 9.71027 86.6829 10.0495C86.0606 10.3781 85.4699 10.8339 84.9003 11.3746C84.3412 11.9152 83.7927 12.5619 83.2653 13.2721C82.7379 13.9824 82.2211 14.735 81.7043 15.4983L80.6495 17.0354V5.86221C80.6495 5.56539 80.6284 5.32158 80.5862 5.12016C80.5545 4.97175 80.4385 4.72793 80.0377 4.72793C79.7423 4.72793 79.4154 4.86575 79.0356 5.16257C78.6875 5.42758 78.0652 5.7562 77.1792 6.14843C76.3986 6.45585 75.6497 6.69967 74.9641 6.86928C74.2785 7.03889 73.6562 7.1555 73.1182 7.2085C72.5908 7.29331 72.4854 7.56892 72.4854 7.78094C72.4854 8.00355 72.6014 8.31097 73.1499 8.48059C73.3292 8.53359 73.5085 8.629 73.6773 8.75621C73.8249 8.87281 73.8988 9.04243 73.8988 9.28624V25.3039C73.8988 25.3039 73.8882 25.3357 73.8882 25.3569C73.8249 26.8516 71.6415 27.3392 70.6922 26.3852C70.4074 26.099 70.3019 25.6961 70.3125 25.2827C70.3125 25.2827 70.3125 25.2827 70.3125 25.2721V15.1484C70.3125 14.5124 70.207 13.8657 69.9855 13.2403C69.764 12.6149 69.4159 12.0424 68.9518 11.5442C68.4877 11.046 67.9076 10.6431 67.222 10.3357C66.5363 10.0283 65.7241 9.86928 64.7959 9.86928C63.5196 9.86928 62.4226 10.2403 61.5261 10.9718C60.7561 11.5972 60.1654 12.318 59.7646 13.1025C59.4798 12.0636 59.2688 11.3534 59.1422 10.993C58.9735 10.5265 58.7414 10.2933 58.4461 10.2933C58.2773 10.2933 58.1507 10.3145 58.0452 10.3781C57.9503 10.4205 57.8448 10.4947 57.7077 10.5795C57.5811 10.6643 57.4018 10.7703 57.1698 10.8975C56.9377 11.0248 56.5896 11.1732 56.1466 11.3428C55.3344 11.6502 54.5961 11.894 53.9737 12.0424C53.3409 12.2014 52.8135 12.3074 52.3915 12.3604C51.8325 12.4452 51.7165 12.7209 51.7165 12.9329C51.7165 13.1661 51.8325 13.4629 52.3705 13.5901C52.5498 13.6431 52.7185 13.7385 52.8873 13.8869C53.035 14.0142 53.1088 14.1944 53.1088 14.4382V25.3145C53.1088 25.3145 53.0983 25.3463 53.0983 25.3781C53.035 26.894 50.7777 27.3498 49.8073 26.417C49.6596 26.2792 49.5647 26.1096 49.5014 25.9293C49.4909 25.7491 49.4803 25.5477 49.4803 25.3145V11.4488C49.4803 11.152 49.4592 10.9081 49.417 10.7067C49.3854 10.5583 49.2694 10.3145 48.8685 10.3145C48.5626 10.3145 48.2251 10.4099 47.877 10.6113C47.5606 10.7915 46.9488 11.0036 46.0522 11.258C45.2401 11.5124 44.4806 11.6714 43.7844 11.7456C43.0883 11.8198 42.487 11.8516 42.0124 11.8516C41.4428 11.8516 41.3584 12.212 41.3584 12.424C41.3584 12.6467 41.4744 12.9541 42.0124 13.1237C42.1706 13.1767 42.3288 13.2721 42.4976 13.3993C42.6453 13.5159 42.7191 13.6855 42.7191 13.9293V23.3746C42.5081 24.2968 41.9069 24.7421 40.9048 24.7421C40.3458 24.7421 39.9133 24.5831 39.5758 24.2544C39.2488 23.9258 39.0906 23.47 39.0906 22.8763V11.4488C39.0906 11.152 39.0695 10.9081 39.0273 10.7067C38.9957 10.5583 38.8797 10.3145 38.4788 10.3145C38.1729 10.3145 37.8354 10.4099 37.4873 10.6113C37.1709 10.7915 36.5591 11.0036 35.6625 11.258C34.8503 11.5124 34.0803 11.6714 33.3947 11.7456C32.6986 11.8198 32.0973 11.8516 31.6227 11.8516C31.0109 11.8516 30.9265 12.212 30.9265 12.424C30.9265 12.6467 31.0425 12.9541 31.5805 13.1237C31.7598 13.1767 31.9391 13.2721 32.1079 13.3993C32.2555 13.5159 32.3294 13.6855 32.3294 13.9293V23.258C32.3294 23.8728 32.4349 24.4983 32.6564 25.1237C32.8779 25.7597 33.226 26.3216 33.6901 26.8198C34.1542 27.318 34.7343 27.7209 35.4199 28.0283C36.1055 28.3357 36.9177 28.4947 37.846 28.4947C39.1539 28.4947 40.2825 28.0919 41.2002 27.3074C41.9913 26.6184 42.5925 25.8551 42.9828 25.0071C43.1621 25.4947 43.4047 25.9294 43.7211 26.3004C44.1114 26.7668 44.5755 27.159 45.0818 27.4452C45.5881 27.7315 46.1472 27.9541 46.7379 28.0813C47.3285 28.2085 47.9298 28.2721 48.5416 28.2721C48.742 28.2721 53.1616 28.1767 53.8894 28.1449C54.575 28.1131 55.4505 28.1025 56.5052 28.1025C57.56 28.1025 58.4355 28.1131 59.1211 28.1449C59.8489 28.1767 60.3341 28.1873 60.64 28.1873C61.2096 28.1873 61.294 27.8587 61.294 27.6573C61.294 27.424 61.178 27.1272 60.64 27.0106C60.3447 26.9046 60.1443 26.7986 60.0283 26.6926C59.9333 26.6078 59.8806 26.4276 59.8806 26.1626V15.4983C59.8806 14.9364 60.0494 14.4806 60.3974 14.1202C60.7455 13.7597 61.1674 13.5901 61.6948 13.5901C62.2539 13.5901 62.6969 13.7597 63.0344 14.1202C63.372 14.4806 63.5513 14.9364 63.5513 15.4983V26.1626C63.5513 26.4276 63.4985 26.6078 63.4036 26.6926C63.2876 26.7986 63.0872 26.9046 62.8024 27C62.2539 27.1272 62.1378 27.424 62.1378 27.6573C62.1378 27.8587 62.2328 28.1873 62.834 28.1873C63.1083 28.1873 63.5724 28.1767 64.3107 28.1449C64.9963 28.1131 65.8718 28.1025 66.9266 28.1025C67.9814 28.1025 68.8569 28.1131 69.5425 28.1449C69.7429 28.1449 73.9304 28.1767 74.6688 28.1449C75.3544 28.1131 76.2299 28.1025 77.2847 28.1025C78.3395 28.1025 79.2149 28.1131 79.9006 28.1449C80.6284 28.1767 81.103 28.1873 81.3773 28.1873C81.9891 28.1873 82.0734 27.8587 82.0734 27.6573C82.0734 27.424 81.9574 27.1272 81.4195 27.0106C81.1241 26.9046 80.9237 26.7986 80.8077 26.6926C80.7127 26.6078 80.66 26.4276 80.66 26.1626V19.8339L83.8877 26.894C84.2147 27.3604 84.4678 27.6785 84.6788 27.8587C84.9003 28.0495 85.1745 28.1661 85.5015 28.1979C85.6281 28.2085 85.7652 28.2191 85.9129 28.2191C86.1344 28.2191 86.3981 28.2085 86.6829 28.1767C87.147 28.1343 87.7799 28.1131 88.5604 28.1131C89.6047 28.1131 90.4169 28.1237 90.9548 28.1555C91.5349 28.1873 91.9463 28.1979 92.2205 28.1979C92.8323 28.1979 92.9167 27.8693 92.9167 27.6679C92.9167 27.4347 92.8007 27.1378 92.2627 27.0212C91.9674 26.9152 91.6826 26.735 91.3978 26.47C91.113 26.2156 90.902 25.9612 90.7649 25.7173L84.7631 13.9506C85.1851 13.5477 85.5964 13.3357 85.9867 13.3357C86.1871 13.3357 86.4086 13.3993 86.6407 13.5265C86.8938 13.6643 87.1681 13.8233 87.4423 13.993C87.7271 14.1626 88.0119 14.3216 88.2756 14.47C88.5604 14.6184 88.8557 14.7032 89.13 14.7032C89.9738 14.7032 90.6173 14.4064 91.0603 13.8339C91.4822 13.2827 91.6931 12.7315 91.7037 12.1908C91.7248 12.1166 91.7353 12.053 91.767 11.9894C91.8619 11.7986 92.094 11.7562 92.2838 11.7562C92.3155 11.7562 92.3366 11.7562 92.3682 11.7562C92.442 11.788 92.5159 11.8092 92.5792 11.841C92.7163 11.9046 92.8745 12.0212 93.0222 12.1802C93.1804 12.3392 93.3492 12.5831 93.5285 12.9117C93.7078 13.2509 93.9398 13.7173 94.2246 14.3216L100.838 28.2933C100.838 28.2933 100.817 28.3569 100.817 28.3993C100.427 29.4912 99.9944 30.371 99.5408 31.0389C99.0978 31.6855 98.5809 32.0036 97.9797 32.0036C97.6527 32.0036 97.3785 31.8763 97.157 31.6007C96.9038 31.3039 96.6612 30.9753 96.4186 30.6149C96.176 30.2332 95.8912 29.894 95.5853 29.5866C95.2583 29.258 94.8364 29.099 94.309 29.099C93.5285 29.099 92.8956 29.364 92.4104 29.894C91.9357 30.4241 91.6931 31.0601 91.6931 31.8127C91.6931 32.7668 92.0623 33.6043 92.8007 34.3145C93.539 35.0248 94.4673 35.3852 95.5853 35.3852C96.1655 35.3852 96.7667 35.3004 97.3679 35.1414C97.9797 34.9824 98.5915 34.6749 99.1822 34.2403C99.7729 33.8057 100.342 33.212 100.88 32.47C101.408 31.7385 101.893 30.7633 102.325 29.5866C103.053 27.5831 103.728 25.7915 104.33 24.2544L104.382 24.2968Z" fill="#C1CFFF"/>
<path d="M146.384 27.3498C146.384 27.053 146.384 26.7456 146.384 26.4382V15.2332C146.384 14.5972 146.279 13.9505 146.057 13.3251C145.836 12.6996 145.498 12.1272 145.045 11.629C144.591 11.1307 144.021 10.7279 143.336 10.4205C142.65 10.1131 141.838 9.95406 140.91 9.95406C139.602 9.95406 138.484 10.3357 137.598 11.0989C136.912 11.6926 136.364 12.3604 135.984 13.1025V5.94699C135.984 5.65017 135.963 5.40635 135.921 5.20494C135.889 5.05653 135.773 4.81271 135.372 4.81271C135.108 4.81271 134.792 4.95052 134.412 5.24734C134.064 5.51236 133.442 5.84098 132.556 6.23321C131.744 6.54063 130.984 6.78445 130.299 6.95406C129.613 7.12367 129.012 7.24028 128.505 7.29328C127.946 7.37809 127.83 7.6537 127.83 7.86572C127.83 8.08833 127.946 8.39575 128.484 8.56537C128.664 8.61837 128.843 8.71377 129.012 8.84098C129.159 8.95759 129.233 9.1272 129.233 9.37102V26.2367C129.233 26.5018 129.181 26.682 129.086 26.7668C128.97 26.8728 128.769 26.9788 128.484 27.0742C127.936 27.2014 127.82 27.4982 127.82 27.7314C127.82 27.9329 127.915 28.2615 128.516 28.2615C128.79 28.2615 129.275 28.2509 129.993 28.2191C130.678 28.1873 131.554 28.1767 132.609 28.1767C133.663 28.1767 134.57 28.1873 135.246 28.2191C135.942 28.2509 136.437 28.2615 136.743 28.2615C137.313 28.2615 137.397 27.9329 137.397 27.7314C137.397 27.4982 137.281 27.2014 136.743 27.0742C136.448 26.9682 136.248 26.8622 136.132 26.7562C136.037 26.6714 135.984 26.4912 135.984 26.2261V15.4134C136.037 14.8834 136.227 14.4488 136.554 14.1307C136.88 13.8127 137.302 13.6537 137.84 13.6537C138.378 13.6537 138.811 13.8233 139.117 14.1837C139.423 14.5442 139.57 15 139.57 15.5618V25.1767C139.57 25.9929 139.623 26.7986 139.739 27.5936" fill="#C1CFFF"/>
<path d="M149.433 26.8198C149.317 26.9258 149.116 27.0318 148.831 27.1272C148.283 27.2544 148.167 27.5513 148.167 27.7845C148.167 27.9859 148.262 28.3145 148.863 28.3145C149.137 28.3145 149.612 28.3039 150.34 28.2721C151.025 28.2403 151.911 28.2297 152.956 28.2297C154 28.2297 154.886 28.2403 155.593 28.2721C156.342 28.3039 156.816 28.3145 157.09 28.3145C157.66 28.3145 157.744 27.9859 157.744 27.7845C157.744 27.5513 157.628 27.2544 157.09 27.1378C156.795 27.0318 156.595 26.9258 156.479 26.8198C156.384 26.735 156.331 26.5548 156.331 26.2898V12.5937C156.363 12.0318 156.426 11.523 156.521 11.0778C156.616 10.6219 156.721 10.1767 156.816 9.73146C156.911 9.28623 157.006 8.8092 157.09 8.31097C157.175 7.80213 157.217 7.21909 157.217 6.55125C157.217 5.31097 156.795 4.3039 155.951 3.53005C155.118 2.7668 154.074 2.37457 152.85 2.37457C151.627 2.37457 150.54 2.735 149.686 3.43464C148.831 4.14489 148.399 4.97174 148.399 5.90461C148.399 6.77386 148.747 7.53711 149.422 8.17316C150.097 8.8092 150.962 9.13783 151.996 9.13783C152.407 9.13783 152.755 9.09542 153.04 9.00001C153.325 8.90461 153.567 8.8092 153.768 8.69259C153.968 8.57599 154.137 8.48058 154.285 8.39577C154.401 8.32157 154.527 8.28977 154.675 8.28977C154.96 8.28977 155.297 8.38517 155.297 9.08482C155.297 9.60425 154.949 10.1237 154.253 10.6325C153.536 11.1626 152.46 11.629 151.057 12.0212H151.036C151.036 12.0212 150.962 12.0636 150.93 12.0636H150.888C150.466 12.1802 150.076 12.265 149.749 12.318C149.412 12.371 149.095 12.4346 148.81 12.4876C148.251 12.5725 148.135 12.8481 148.135 13.0601C148.135 13.2933 148.251 13.5901 148.8 13.7173C148.979 13.7703 149.148 13.8657 149.317 14.0141C149.464 14.1414 149.538 14.3216 149.538 14.5654V26.3004C149.538 26.5654 149.485 26.7456 149.39 26.8304L149.433 26.8198Z" fill="#C1CFFF"/>
<path d="M139.634 19.5689V26.2791C139.634 26.5441 139.581 26.7244 139.486 26.8092C139.37 26.9152 139.17 27.0212 138.885 27.1166C138.336 27.2438 138.22 27.5406 138.22 27.7738C138.22 27.9752 138.315 28.3039 138.916 28.3039C139.191 28.3039 139.665 28.2933 140.393 28.2615C141.079 28.2297 141.965 28.2191 143.009 28.2191C144.053 28.2191 144.939 28.2297 145.646 28.2615C146.395 28.2933 146.87 28.3039 147.144 28.3039C147.713 28.3039 147.798 27.9752 147.798 27.7738C147.798 27.5406 147.682 27.2438 147.144 27.1272C146.848 27.0212 146.648 26.9152 146.532 26.8092C146.437 26.7244 146.384 26.5441 146.384 26.2791V19.5689" fill="#C1CFFF"/>
<path d="M175.222 23.9364C174.927 23.7138 174.705 23.7562 174.568 23.841C174.094 24.1166 173.608 24.3498 173.123 24.5406C172.649 24.7208 171.995 24.8056 171.193 24.8056C170.592 24.8056 169.969 24.6254 169.326 24.265C168.683 23.9046 168.081 23.3851 167.533 22.7173C166.995 22.0494 166.552 21.212 166.214 20.2367C165.877 19.2615 165.708 18.1484 165.708 16.9399C165.708 16.2085 165.771 15.5194 165.898 14.8728C166.024 14.2261 166.193 13.6643 166.404 13.1873C166.605 12.7208 166.847 12.3498 167.121 12.0742C167.375 11.8198 167.628 11.6926 167.87 11.6926C168.398 11.6926 168.767 12.0106 168.988 12.6678C169.22 13.3675 169.347 14.2685 169.347 15.3604C169.347 16.4523 169.611 17.3321 170.128 17.9046C170.655 18.477 171.32 18.7632 172.132 18.7632C172.691 18.7632 173.208 18.636 173.651 18.3816C174.094 18.1272 174.463 17.788 174.758 17.3745C175.053 16.9611 175.254 16.4841 175.359 15.9646C175.465 15.4452 175.444 14.9152 175.296 14.3745C175.117 13.7597 174.821 13.1767 174.4 12.636C173.978 12.0954 173.461 11.629 172.849 11.2367C172.248 10.8445 171.562 10.5371 170.813 10.3039C170.064 10.0707 169.263 9.95404 168.429 9.95404C167.058 9.95404 165.771 10.1873 164.622 10.6537C163.472 11.1201 162.47 11.7668 161.637 12.5936C160.803 13.4205 160.139 14.4169 159.664 15.5724C159.189 16.7279 158.947 18.0318 158.947 19.4417C158.947 20.6502 159.147 21.8268 159.548 22.9187C159.949 24.0106 160.55 24.9964 161.32 25.8339C162.101 26.6714 163.039 27.3498 164.136 27.8374C165.233 28.3251 166.478 28.5795 167.86 28.5795C168.862 28.5795 169.79 28.4523 170.613 28.1873C171.425 27.9328 172.174 27.6042 172.817 27.2332C173.471 26.8516 174.009 26.4381 174.431 25.9823C174.853 25.5265 175.148 25.1237 175.328 24.7738C175.549 24.3286 175.391 24.0848 175.222 23.947V23.9364Z" fill="#C1CFFF"/>
<path d="M126.438 23.9364C126.143 23.7138 125.921 23.7562 125.784 23.841C125.309 24.1166 124.824 24.3498 124.339 24.5406C123.864 24.7208 123.21 24.8056 122.409 24.8056C121.808 24.8056 121.185 24.6254 120.542 24.265C119.898 23.9046 119.297 23.3851 118.749 22.7173C118.211 22.0494 117.768 21.212 117.43 20.2367C117.093 19.2615 116.924 18.1484 116.924 16.9399C116.924 16.2085 116.987 15.5194 117.114 14.8728C117.24 14.2261 117.409 13.6643 117.62 13.1873C117.82 12.7208 118.063 12.3498 118.337 12.0742C118.59 11.8198 118.844 11.6926 119.086 11.6926C119.614 11.6926 119.983 12.0106 120.204 12.6678C120.436 13.3675 120.563 14.2685 120.563 15.3604C120.563 16.4523 120.827 17.3321 121.343 17.9046C121.871 18.477 122.535 18.7632 123.348 18.7632C123.907 18.7632 124.423 18.636 124.866 18.3816C125.309 18.1272 125.679 17.788 125.974 17.3745C126.269 16.9611 126.47 16.4841 126.575 15.9646C126.681 15.4452 126.66 14.9152 126.512 14.3745C126.333 13.7597 126.037 13.1767 125.615 12.636C125.193 12.0954 124.677 11.629 124.065 11.2367C123.464 10.8445 122.778 10.5371 122.029 10.3039C121.28 10.0707 120.478 9.95404 119.645 9.95404C118.274 9.95404 116.987 10.1873 115.837 10.6537C114.688 11.1201 113.686 11.7668 112.852 12.5936C112.019 13.4205 111.355 14.4169 110.88 15.5724C110.405 16.7279 110.163 18.0318 110.163 19.4417C110.163 20.6502 110.363 21.8268 110.764 22.9187C111.165 24.0106 111.766 24.9964 112.536 25.8339C113.316 26.6714 114.255 27.3498 115.352 27.8374C116.449 28.3251 117.694 28.5795 119.076 28.5795C120.078 28.5795 121.006 28.4523 121.829 28.1873C122.641 27.9328 123.39 27.6042 124.033 27.2332C124.687 26.8516 125.225 26.4381 125.647 25.9823C126.069 25.5265 126.364 25.1237 126.544 24.7738C126.765 24.3286 126.607 24.0848 126.438 23.947V23.9364Z" fill="#C1CFFF"/>
<path d="M196.329 27.0848C196.033 26.9788 195.748 26.7986 195.464 26.5336C195.179 26.2792 194.968 26.0247 194.831 25.7809L188.829 13.9717C189.23 13.5901 189.61 13.3993 189.968 13.3993C190.169 13.3993 190.39 13.4629 190.622 13.5901C190.875 13.7279 191.15 13.8869 191.424 14.0565C191.709 14.2262 191.993 14.3958 192.257 14.5336C192.542 14.682 192.837 14.7668 193.111 14.7668C193.955 14.7668 194.599 14.47 195.042 13.8975C195.474 13.3357 195.685 12.7633 195.685 12.2226C195.685 11.5866 195.4 10.9823 194.831 10.4311C194.261 9.87986 193.533 9.59364 192.637 9.59364C191.951 9.59364 190.675 10.0813 190.021 10.4311C189.567 10.6749 189.441 10.8127 189.219 11.0565C189.124 11.1519 189.019 11.2792 188.861 11.4382C188.302 11.9788 187.753 12.6254 187.226 13.3357C186.698 14.0459 186.181 14.7986 185.665 15.5618L184.61 17.0989V1.12368C184.61 0.858659 184.578 0.614842 184.515 0.402828C184.441 0.13781 184.241 0 183.945 0C183.65 0 183.323 0.14841 182.922 0.455831C182.553 0.74205 181.973 1.17668 181.213 1.73852C180.591 2.21555 179.927 2.71378 179.241 3.21201C178.545 3.71025 177.796 4.16608 177.005 4.56891C176.214 4.97173 175.359 5.31095 174.473 5.56537C173.598 5.81979 172.638 5.947 171.636 5.947C171.14 5.947 170.644 5.87279 170.149 5.71378C169.653 5.56537 169.178 5.35336 168.725 5.10954C168.282 4.85512 167.891 4.5583 167.564 4.21908C167.237 3.87986 166.984 3.50883 166.826 3.12721C166.415 2.12014 165.813 1.4523 165.043 1.14488C164.273 0.837458 163.493 0.805654 162.723 1.08127C162.364 1.19788 162.048 1.3993 161.805 1.67491C161.563 1.93993 161.383 2.25795 161.267 2.59717C161.151 2.947 161.098 3.30742 161.13 3.68905C161.162 4.06007 161.246 4.40989 161.404 4.71732C162.132 5.947 163.314 6.78445 164.917 7.21908C166.499 7.65371 168.693 7.86573 171.446 7.86573C173.144 7.86573 174.526 7.80212 175.528 7.67491C176.446 7.55831 177.205 7.40989 177.817 7.22968V26.2155C177.817 26.4806 177.764 26.6608 177.669 26.7456C177.553 26.8516 177.353 26.9576 177.068 27.053C176.52 27.1802 176.404 27.477 176.404 27.7102C176.404 27.9117 176.488 28.2403 177.058 28.2403C177.363 28.2403 177.859 28.2297 178.576 28.1979C179.262 28.1661 180.138 28.1555 181.192 28.1555C182.247 28.1555 183.123 28.1661 183.808 28.1979C184.525 28.2297 185.011 28.2403 185.285 28.2403C185.897 28.2403 185.981 27.9117 185.981 27.7102C185.981 27.477 185.865 27.1802 185.327 27.053C185.032 26.947 184.831 26.841 184.715 26.735C184.62 26.6502 184.568 26.47 184.568 26.2049V19.7279C184.568 19.7279 184.568 19.7173 184.568 19.7067L187.869 26.9258C188.196 27.3922 188.449 27.7102 188.66 27.8905C188.882 28.0813 189.156 28.1979 189.483 28.2297C189.61 28.2403 189.747 28.2509 189.894 28.2509C190.116 28.2509 190.38 28.2403 190.654 28.2085C191.118 28.1661 191.751 28.1449 192.531 28.1449C193.597 28.1449 194.377 28.1555 194.926 28.1873C195.495 28.2191 195.907 28.2297 196.191 28.2297C196.803 28.2297 196.888 27.9011 196.888 27.6996C196.888 27.4664 196.772 27.1696 196.234 27.0424L196.329 27.0848Z" fill="#C1CFFF"/>
<path d="M206.033 9.95404C204.661 9.95404 203.375 10.1873 202.225 10.6537C201.075 11.1201 200.073 11.7668 199.24 12.5936C198.406 13.4205 197.742 14.4169 197.267 15.5724C196.793 16.7279 196.55 18.0318 196.55 19.4417C196.55 20.6502 196.75 21.8268 197.151 22.9187C197.552 24.0106 198.153 24.9964 198.923 25.8339C199.704 26.6714 200.643 27.3498 201.74 27.8374C202.837 28.3251 204.081 28.5795 205.463 28.5795C206.465 28.5795 207.404 28.4311 208.258 28.1449C209.102 27.8586 209.862 27.5088 210.526 27.106C211.18 26.7032 211.739 26.2791 212.172 25.8445C212.615 25.3993 212.899 25.0601 213.047 24.7738C213.269 24.3286 213.11 24.0848 212.942 23.947C212.646 23.7244 212.425 23.7668 212.288 23.8516C211.813 24.1272 211.307 24.3604 210.779 24.5406C210.262 24.7208 209.587 24.8162 208.786 24.8162C208.237 24.8162 207.678 24.6784 207.13 24.4028C206.571 24.1272 206.033 23.7244 205.526 23.1943C205.031 22.6643 204.588 22.007 204.208 21.2438C203.86 20.5229 203.607 19.7067 203.459 18.8268H212.878C213.49 18.8268 213.574 18.4664 213.574 18.2544C213.574 15.742 212.91 13.7173 211.602 12.2332C210.283 10.7385 208.406 9.97524 206.022 9.97524L206.033 9.95404ZM203.322 16.9505C203.322 16.2191 203.385 15.53 203.512 14.8834C203.638 14.2367 203.807 13.6749 204.018 13.1979C204.218 12.7314 204.461 12.3604 204.735 12.0848C204.988 11.8304 205.242 11.7032 205.484 11.7032C205.99 11.7032 206.349 12.0212 206.581 12.6784C206.834 13.3675 206.961 14.2791 206.961 15.371C206.961 15.8162 206.929 16.1555 206.876 16.3887C206.824 16.6113 206.76 16.7703 206.676 16.8657C206.592 16.9611 206.518 17.0141 206.444 17.0353C206.36 17.0565 206.275 17.0777 206.212 17.0777H203.332V16.9717L203.322 16.9505Z" fill="#C1CFFF"/>
<path d="M252.201 30.6784C251.948 30.0742 251.484 29.629 250.83 29.3639C250.007 29.0035 249.195 28.9717 248.425 29.2579C247.644 29.5442 247.096 30.2226 246.8 31.2615C246.579 32.0777 246.125 32.735 245.45 33.212C244.765 33.689 243.668 33.9328 242.17 33.9328C240.967 33.9328 239.828 33.7526 238.763 33.3816C237.708 33.0212 236.769 32.4699 235.978 31.7385C235.187 31.0176 234.565 30.106 234.122 29.0459C233.679 27.9858 233.447 26.735 233.447 25.3357V15.2332C233.447 14.5972 233.341 13.9505 233.12 13.3251C232.898 12.6996 232.55 12.1272 232.086 11.629C231.622 11.1307 231.031 10.7279 230.335 10.4205C229.639 10.1131 228.816 9.95404 227.888 9.95404C226.643 9.95404 225.546 10.3251 224.639 11.0565C223.859 11.682 223.257 12.4028 222.857 13.1979C222.572 12.159 222.371 11.4487 222.255 11.0883C222.108 10.6219 221.876 10.3887 221.58 10.3887C221.38 10.3887 221.243 10.4099 221.127 10.4735C221.032 10.5159 220.926 10.5901 220.789 10.6749C220.663 10.7597 220.483 10.8657 220.262 10.9929C220.04 11.1201 219.692 11.2685 219.218 11.4381C218.405 11.7456 217.678 11.9894 217.066 12.1378C216.454 12.2968 215.905 12.4028 215.473 12.4558C214.914 12.4982 214.83 12.8374 214.83 13.0282C214.83 13.2615 214.935 13.5583 215.452 13.6855C215.652 13.7385 215.842 13.8339 216.011 13.9717C216.159 14.0989 216.232 14.2791 216.232 14.5229V26.2579C216.232 26.5229 216.18 26.7032 216.074 26.788C215.948 26.894 215.726 27 215.452 27.106C214.935 27.2332 214.83 27.53 214.83 27.7632C214.83 27.9646 214.914 28.2933 215.484 28.2933C215.758 28.2933 216.243 28.2827 216.96 28.2509C217.646 28.2191 218.521 28.2085 219.576 28.2085C220.631 28.2085 221.506 28.2191 222.192 28.2509C222.909 28.2827 223.405 28.2933 223.711 28.2933C224.281 28.2933 224.365 27.9646 224.365 27.7632C224.365 27.53 224.249 27.2332 223.711 27.106C223.416 27 223.215 26.894 223.099 26.788C223.004 26.7032 222.952 26.5229 222.952 26.2579V15.4452C223.004 14.9152 223.194 14.4805 223.521 14.1625C223.848 13.8445 224.27 13.6855 224.808 13.6855C225.346 13.6855 225.81 13.8551 226.148 14.2155C226.485 14.5759 226.664 15.0318 226.664 15.5936V24.1166C226.664 25.6749 227.065 27.2014 227.856 28.6431C228.647 30.0848 229.734 31.3569 231.084 32.4381C232.434 33.5088 234.058 34.3887 235.894 35.0247C237.729 35.6714 239.744 36 241.885 36C243.225 36 244.49 35.9258 245.651 35.788C246.821 35.6396 247.866 35.4275 248.762 35.1413C249.669 34.8551 250.429 34.4947 251.041 34.0707C251.663 33.636 252.064 33.1272 252.243 32.5654C252.454 31.9293 252.433 31.3039 252.18 30.7102L252.201 30.6784Z" fill="#C1CFFF"/>
</svg>
