<svg width="191" height="36" viewBox="0 0 191 36" fill="none" xmlns="http://www.w3.org/2000/svg">
<path d="M0.143066 28V0.737512H5.66654V23.3688H19.4005V28H0.143066ZM24.7538 14.1625L19.9955 13.3C20.5304 11.375 21.4509 9.95001 22.7572 9.02501C24.0634 8.10001 26.0041 7.63753 28.5792 7.63753C30.918 7.63753 32.6596 7.91877 33.8041 8.48125C34.9486 9.03125 35.751 9.73753 36.2113 10.6C36.684 11.45 36.9204 13.0188 36.9204 15.3063L36.8644 21.4563C36.8644 23.2063 36.9453 24.5 37.107 25.3375C37.2811 26.1625 37.5984 27.05 38.0587 28H32.8711C32.7342 27.65 32.5663 27.1313 32.3672 26.4438C32.2801 26.1313 32.218 25.925 32.1806 25.825C31.2849 26.7 30.327 27.3563 29.307 27.7938C28.2869 28.2313 27.1983 28.45 26.0414 28.45C24.0012 28.45 22.3902 27.8938 21.2083 26.7813C20.039 25.6688 19.4543 24.2625 19.4543 22.5625C19.4543 21.4375 19.7218 20.4375 20.2567 19.5625C20.7916 18.675 21.538 18 22.4959 17.5375C23.4663 17.0625 24.8596 16.65 26.6758 16.3C29.1266 15.8375 30.8247 15.4063 31.7701 15.0063V14.4813C31.7701 13.4688 31.5213 12.75 31.0237 12.325C30.5261 11.8875 29.5868 11.6688 28.206 11.6688C27.273 11.6688 26.5452 11.8563 26.0227 12.2313C25.5002 12.5938 25.0773 13.2375 24.7538 14.1625ZM31.7701 18.4375C31.0983 18.6625 30.0347 18.9313 28.5792 19.2438C27.1237 19.5563 26.172 19.8625 25.7242 20.1625C25.0399 20.65 24.6979 21.2688 24.6979 22.0188C24.6979 22.7563 24.9715 23.3938 25.5189 23.9313C26.0663 24.4688 26.7629 24.7375 27.6089 24.7375C28.5543 24.7375 29.4562 24.425 30.3146 23.8C30.9491 23.325 31.3658 22.7438 31.5649 22.0563C31.7017 21.6063 31.7701 20.75 31.7701 19.4875V18.4375ZM39.3999 28V0.512512H44.6435V10.4125C46.2609 8.56249 48.1765 7.63753 50.3911 7.63753C52.8043 7.63753 54.8011 8.51877 56.3807 10.2813C57.9607 12.0313 58.7509 14.55 58.7509 17.8375C58.7509 21.2375 57.942 23.8563 56.325 25.6938C54.7203 27.5313 52.7669 28.45 50.4655 28.45C49.3334 28.45 48.2139 28.1688 47.1069 27.6063C46.0121 27.0313 45.0667 26.1875 44.2705 25.075V28H39.3999ZM44.6061 17.6125C44.6061 19.675 44.9297 21.2 45.5766 22.1875C46.4847 23.5875 47.6913 24.2875 49.1968 24.2875C50.3537 24.2875 51.3365 23.7938 52.1451 22.8063C52.9659 21.8063 53.3767 20.2375 53.3767 18.1C53.3767 15.825 52.9659 14.1875 52.1451 13.1875C51.3238 12.175 50.2729 11.6688 48.9914 11.6688C47.7351 11.6688 46.6901 12.1625 45.8565 13.15C45.0229 14.125 44.6061 15.6125 44.6061 17.6125ZM86.1955 17.8938L91.5513 19.6C90.7301 22.6 89.3618 24.8313 87.4458 26.2938C85.5426 27.7438 83.123 28.4688 80.1871 28.4688C76.5546 28.4688 73.5689 27.225 71.2302 24.7375C68.8914 22.2375 67.7218 18.825 67.7218 14.5C67.7218 9.92501 68.8974 6.37501 71.2489 3.85001C73.6 1.31251 76.6911 0.0437622 80.5227 0.0437622C83.8694 0.0437622 86.5876 1.03751 88.6775 3.02501C89.9216 4.20001 90.8547 5.88753 91.4765 8.08753L86.0092 9.40001C85.6855 7.97501 85.0076 6.85001 83.9749 6.02501C82.955 5.20001 81.711 4.78753 80.2429 4.78753C78.2154 4.78753 76.5669 5.51877 75.2978 6.98125C74.0415 8.44377 73.4133 10.8125 73.4133 14.0875C73.4133 17.5625 74.0355 20.0375 75.2795 21.5125C76.5235 22.9875 78.1406 23.725 80.131 23.725C81.5991 23.725 82.8615 23.2563 83.9192 22.3188C84.9765 21.3813 85.7353 19.9063 86.1955 17.8938ZM98.8077 28H93.564V8.08753H98.4346V10.9188C99.2682 9.58125 100.015 8.70001 100.674 8.27501C101.345 7.85001 102.105 7.63753 102.951 7.63753C104.145 7.63753 105.295 7.96877 106.402 8.63125L104.779 13.225C103.896 12.65 103.075 12.3625 102.316 12.3625C101.582 12.3625 100.96 12.5688 100.45 12.9813C99.9398 13.3813 99.5354 14.1125 99.2368 15.175C98.951 16.2375 98.8077 18.4625 98.8077 21.85V28ZM106.195 5.38753V0.512512H111.439V5.38753H106.195ZM106.195 28V8.08753H111.439V28H106.195ZM118.266 14.1625L113.508 13.3C114.042 11.375 114.963 9.95001 116.269 9.02501C117.575 8.10001 119.516 7.63753 122.091 7.63753C124.43 7.63753 126.172 7.91877 127.316 8.48125C128.461 9.03125 129.263 9.73753 129.724 10.6C130.196 11.45 130.433 13.0188 130.433 15.3063L130.377 21.4563C130.377 23.2063 130.458 24.5 130.619 25.3375C130.793 26.1625 131.11 27.05 131.571 28H126.383C126.247 27.65 126.079 27.1313 125.88 26.4438C125.792 26.1313 125.73 25.925 125.693 25.825C124.797 26.7 123.839 27.3563 122.819 27.7938C121.799 28.2313 120.71 28.45 119.554 28.45C117.513 28.45 115.902 27.8938 114.72 26.7813C113.551 25.6688 112.966 24.2625 112.966 22.5625C112.966 21.4375 113.234 20.4375 113.769 19.5625C114.304 18.675 115.05 18 116.008 17.5375C116.978 17.0625 118.372 16.65 120.188 16.3C122.639 15.8375 124.337 15.4063 125.282 15.0063V14.4813C125.282 13.4688 125.034 12.75 124.536 12.325C124.038 11.8875 123.099 11.6688 121.718 11.6688C120.785 11.6688 120.058 11.8563 119.535 12.2313C119.013 12.5938 118.589 13.2375 118.266 14.1625ZM125.282 18.4375C124.61 18.6625 123.547 18.9313 122.091 19.2438C120.636 19.5563 119.684 19.8625 119.236 20.1625C118.552 20.65 118.21 21.2688 118.21 22.0188C118.21 22.7563 118.484 23.3938 119.031 23.9313C119.579 24.4688 120.275 24.7375 121.121 24.7375C122.067 24.7375 122.968 24.425 123.827 23.8C124.461 23.325 124.878 22.7438 125.077 22.0563C125.214 21.6063 125.282 20.75 125.282 19.4875V18.4375ZM150.416 13.975L145.247 14.9125C145.073 13.875 144.674 13.0938 144.052 12.5688C143.443 12.0438 142.647 11.7813 141.664 11.7813C140.358 11.7813 139.313 12.2375 138.529 13.15C137.758 14.05 137.372 15.5625 137.372 17.6875C137.372 20.05 137.764 21.7188 138.548 22.6938C139.344 23.6688 140.407 24.1563 141.739 24.1563C142.734 24.1563 143.549 23.875 144.183 23.3125C144.817 22.7375 145.265 21.7563 145.526 20.3688L150.677 21.25C150.142 23.625 149.116 25.4188 147.598 26.6313C146.08 27.8438 144.046 28.45 141.496 28.45C138.597 28.45 136.284 27.5313 134.554 25.6938C132.837 23.8563 131.979 21.3125 131.979 18.0625C131.979 14.775 132.844 12.2188 134.573 10.3938C136.302 8.55625 138.641 7.63753 141.589 7.63753C144.003 7.63753 145.919 8.16249 147.336 9.21249C148.767 10.25 149.793 11.8375 150.416 13.975ZM136.29 35.5563V33.3438C137.571 33.4813 138.747 33.55 139.817 33.55C140.924 33.55 141.745 33.35 142.28 32.95C142.69 32.65 142.895 32.2625 142.895 31.7875C142.895 31.3625 142.703 30.9938 142.317 30.6813C141.931 30.3688 141.334 30.2125 140.526 30.2125C139.729 30.2125 138.915 30.3375 138.081 30.5875L138.566 28.7313C139.537 28.3938 140.582 28.225 141.701 28.225C143.256 28.225 144.438 28.5688 145.247 29.2563C146.055 29.9438 146.46 30.7813 146.46 31.7688C146.46 32.8688 146.012 33.7625 145.116 34.45C143.909 35.3875 142.18 35.8563 139.928 35.8563C138.324 35.8563 137.111 35.7563 136.29 35.5563ZM155.844 14.1625L151.085 13.3C151.62 11.375 152.541 9.95001 153.847 9.02501C155.153 8.10001 157.094 7.63753 159.669 7.63753C162.008 7.63753 163.749 7.91877 164.894 8.48125C166.038 9.03125 166.841 9.73753 167.301 10.6C167.773 11.45 168.01 13.0188 168.01 15.3063L167.954 21.4563C167.954 23.2063 168.035 24.5 168.197 25.3375C168.371 26.1625 168.688 27.05 169.148 28H163.961C163.824 27.65 163.656 27.1313 163.457 26.4438C163.37 26.1313 163.308 25.925 163.27 25.825C162.375 26.7 161.417 27.3563 160.397 27.7938C159.377 28.2313 158.288 28.45 157.131 28.45C155.091 28.45 153.48 27.8938 152.298 26.7813C151.129 25.6688 150.544 24.2625 150.544 22.5625C150.544 21.4375 150.811 20.4375 151.346 19.5625C151.881 18.675 152.627 18 153.586 17.5375C154.556 17.0625 155.949 16.65 157.766 16.3C160.216 15.8375 161.914 15.4063 162.86 15.0063V14.4813C162.86 13.4688 162.611 12.75 162.113 12.325C161.616 11.8875 160.676 11.6688 159.295 11.6688C158.363 11.6688 157.635 11.8563 157.112 12.2313C156.59 12.5938 156.167 13.2375 155.844 14.1625ZM162.86 18.4375C162.188 18.6625 161.124 18.9313 159.669 19.2438C158.213 19.5563 157.262 19.8625 156.814 20.1625C156.129 20.65 155.787 21.2688 155.787 22.0188C155.787 22.7563 156.061 23.3938 156.608 23.9313C157.156 24.4688 157.852 24.7375 158.698 24.7375C159.644 24.7375 160.546 24.425 161.404 23.8C162.039 23.325 162.455 22.7438 162.654 22.0563C162.791 21.6063 162.86 20.75 162.86 19.4875V18.4375ZM155.806 5.40625H153.418C153.405 5.11877 153.399 4.89377 153.399 4.73125C153.399 3.41876 153.716 2.41251 154.351 1.71251C154.985 1.00001 155.8 0.643764 156.795 0.643764C157.231 0.643764 157.635 0.693764 158.008 0.793764C158.381 0.881264 159.059 1.15001 160.042 1.60001C161.037 2.03751 161.815 2.25626 162.375 2.25626C162.773 2.25626 163.102 2.13126 163.363 1.88126C163.637 1.63126 163.811 1.21251 163.886 0.625012H166.312C166.299 2.31251 165.982 3.51876 165.36 4.24377C164.751 4.96877 163.961 5.33125 162.99 5.33125C162.567 5.33125 162.151 5.28753 161.74 5.20001C161.454 5.12501 160.738 4.86877 159.594 4.43125C158.449 3.99376 157.616 3.77501 157.094 3.77501C156.696 3.77501 156.385 3.90001 156.16 4.15001C155.937 4.38753 155.819 4.80625 155.806 5.40625ZM169.501 17.7625C169.501 16.0125 169.93 14.3188 170.788 12.6813C171.646 11.0438 172.859 9.79377 174.427 8.93125C176.007 8.06877 177.767 7.63753 179.708 7.63753C182.706 7.63753 185.163 8.61877 187.079 10.5813C188.994 12.5313 189.953 15 189.953 17.9875C189.953 21 188.982 23.5 187.041 25.4875C185.113 27.4625 182.681 28.45 179.745 28.45C177.929 28.45 176.193 28.0375 174.539 27.2125C172.897 26.3875 171.646 25.1813 170.788 23.5938C169.93 21.9938 169.501 20.05 169.501 17.7625ZM174.875 18.0438C174.875 20.0188 175.341 21.5313 176.274 22.5813C177.207 23.6313 178.358 24.1563 179.726 24.1563C181.095 24.1563 182.24 23.6313 183.16 22.5813C184.093 21.5313 184.56 20.0063 184.56 18.0063C184.56 16.0563 184.093 14.5563 183.16 13.5063C182.24 12.4563 181.095 11.9313 179.726 11.9313C178.358 11.9313 177.207 12.4563 176.274 13.5063C175.341 14.5563 174.875 16.0688 174.875 18.0438Z" fill="#C1CFFF"/>
</svg>
