<svg width="140" height="36" viewBox="0 0 140 36" fill="none" xmlns="http://www.w3.org/2000/svg">
<g clip-path="url(#clip0_156_102)">
<path d="M29.0594 12.6327C30.151 13.5345 30.6977 15.0273 30.6977 17.1145V28.3218H26.2293V18.1982C26.2293 17.3236 26.1127 16.6509 25.8794 16.1818C25.453 15.3273 24.6439 14.9 23.4484 14.9C21.9796 14.9 20.9718 15.5254 20.4251 16.7782C20.1408 17.44 20.0005 18.2854 20.0005 19.3127V28.3218H15.636V11.7091H19.8602V14.1364C20.4197 13.2818 20.9463 12.6654 21.4456 12.2891C22.3404 11.6164 23.4721 11.2818 24.8443 11.2818C26.561 11.28 27.966 11.7309 29.0594 12.6327Z" fill="#C1CFFF"/>
<path d="M33.7263 20.0218C33.7263 17.6218 34.4297 15.5418 35.8384 13.7818C37.2471 12.0218 39.3847 11.1418 42.2513 11.1418C45.1178 11.1418 47.2554 12.0218 48.6641 13.7818C50.0728 15.5418 50.7762 17.6218 50.7762 20.0218C50.7762 22.4636 50.0728 24.5509 48.6641 26.2854C47.2554 28.02 45.1178 28.8872 42.2513 28.8872C39.3847 28.8872 37.2471 28.02 35.8384 26.2854C34.4316 24.5509 33.7263 22.4636 33.7263 20.0218ZM38.2567 20.0218C38.2567 21.6891 38.6011 22.9745 39.2899 23.88C39.9788 24.7854 40.961 25.2363 42.2367 25.2363C43.5123 25.2363 44.4909 24.7836 45.1743 23.88C45.8577 22.9745 46.2003 21.6891 46.2003 20.0218C46.2003 18.3545 45.8577 17.0709 45.1743 16.1727C44.4909 15.2727 43.5105 14.8236 42.2367 14.8236C40.961 14.8236 39.9788 15.2727 39.2899 16.1727C38.6011 17.0727 38.2567 18.3563 38.2567 20.0218Z" fill="#C1CFFF"/>
<path d="M64.1758 11.6782H68.8592L62.8346 28.3218H58.235L52.2522 11.6782H57.1507L60.6241 23.9546L64.1758 11.6782Z" fill="#C1CFFF"/>
<path d="M124.277 6.26726C123.236 3.62908 121.214 2.32544 120.35 1.76726C117.441 -0.107283 114.453 -0.0727353 112.847 -0.0545535C111.422 -0.0381899 108.557 0.221806 105.374 1.78181C101.669 3.59635 98.7732 6.43635 96.9982 9.99272C94.2556 15.4891 95.143 20.7291 95.9175 23.3636C96.3057 24.6836 97.4866 28.7 101.377 31.9491C104.989 34.9654 108.851 35.5327 110.119 35.7182C111.05 35.8545 111.949 35.9145 112.809 35.9145C116.106 35.9145 118.835 35.0291 120.687 34.1854L119.552 31.7054C117.551 32.6164 114.36 33.5854 110.516 33.02C109.323 32.8436 106.15 32.3782 103.129 29.8564C99.8738 27.14 98.8679 23.72 98.5381 22.5964C97.8766 20.3455 97.1148 15.8727 99.442 11.2091C100.947 8.1909 103.415 5.77817 106.576 4.2309C109.377 2.85817 111.916 2.68544 112.876 2.67453C114.378 2.65817 116.647 2.6309 118.865 4.05999C119.615 4.54362 121.013 5.44544 121.731 7.26726C122.09 8.17999 122.398 9.66181 121.819 11.5273C121.385 12.9254 120.541 13.9582 119.685 14.6964C119.448 13.3254 118.77 12.3527 117.644 11.7818C116.218 11.06 114.589 10.6982 112.756 10.6982C109.939 10.6982 107.951 11.4309 106.791 12.8964C106.064 13.8327 105.654 15.0291 105.561 16.4854H109.771C109.875 15.8436 110.081 15.3345 110.392 14.9582C110.826 14.4491 111.566 14.1945 112.61 14.1945C113.541 14.1945 114.247 14.3236 114.728 14.5836C114.936 14.6945 115.061 14.8382 115.09 14.8673C115.154 14.9309 115.495 15.2818 115.628 15.8673C115.663 16.0218 115.699 16.2618 115.67 16.56C115.393 16.7745 115.007 17.0273 114.509 17.2327C113.813 17.52 113.188 17.5982 112.767 17.6145L111.271 17.7982C109.574 18.0127 108.289 18.3691 107.417 18.8673C105.824 19.7836 105.027 21.2654 105.027 23.3109C105.027 24.8891 105.523 26.1073 106.513 26.9673C107.502 27.8273 108.758 28.2582 110.276 28.2582C111.466 28.2582 112.534 27.9891 113.478 27.4491C114.269 26.9909 114.967 26.4364 115.572 25.7854C115.603 26.1618 115.643 26.4982 115.694 26.7927C115.745 27.0873 115.836 27.4036 115.969 27.74C117.693 27.7291 119.417 27.7182 121.141 27.7054C120.454 27.3109 120.177 26.8182 120.071 26.5945C119.883 26.1945 119.821 25.7982 119.81 25.4345C119.79 24.6818 119.779 24.04 119.779 23.5109V17.9745C121.367 17.0473 123.506 15.3018 124.428 12.3364C125.245 9.7109 124.796 7.58726 124.277 6.26726ZM115.437 21.2618C115.406 22.7182 114.988 23.72 114.187 24.2691C113.383 24.8182 112.506 25.0945 111.551 25.0945C110.95 25.0945 110.44 24.9291 110.021 24.5982C109.602 24.2673 109.392 23.7309 109.392 22.9873C109.392 22.1527 109.735 21.5364 110.422 21.14C110.828 20.9054 111.495 20.7073 112.426 20.5436L113.419 20.36C113.915 20.2691 114.307 20.1691 114.591 20.0618C114.875 19.9545 115.158 19.8145 115.437 19.6418V21.2618Z" fill="#C1CFFF"/>
<path d="M138.77 13.6401C139.708 15.7346 138.313 17.9528 138.107 18.271C137.077 19.8546 135.28 20.8383 133.629 20.9546C132.652 21.0237 132.306 20.7492 129.968 20.6455C129.062 20.6055 128.313 20.611 127.814 20.6219C127.428 22.0128 127.739 23.4074 128.641 24.1346C129.39 24.7383 130.393 24.7601 130.677 24.7601C131.262 24.7601 131.798 24.6528 132.288 24.4365C132.386 24.3928 132.687 24.2546 133.035 23.9965C133.569 23.6001 133.901 23.1565 134.09 22.851C135.575 22.851 137.059 22.851 138.544 22.851C138.218 23.8383 137.489 24.8419 136.355 25.8583C134.58 27.4765 132.406 28.2856 129.835 28.2856C127.712 28.2856 125.986 27.6037 124.654 26.2401C123.322 24.8765 122.983 22.6565 123.637 19.5819C124.249 16.7019 125.45 14.4928 127.242 12.9546C128.178 12.151 129.19 11.5565 130.276 11.1728C130.863 10.9656 131.963 10.5855 133.432 10.6474C134.128 10.6765 135.535 10.7546 136.933 11.6819C137.456 12.0346 138.302 12.5946 138.77 13.6401ZM128.324 17.8019C128.67 17.7874 129.201 17.7819 129.844 17.8328C131.481 17.9637 131.96 18.3474 133.07 18.1728C133.545 18.0983 134.252 17.9765 134.721 17.3874C135.094 16.9165 135.142 16.371 135.147 16.1619C135.151 16.0146 135.156 15.4546 134.815 14.951C134.23 14.0892 133.013 14.0674 132.665 14.0583C131.382 14.0237 130.469 14.7346 130.117 15.0056C128.862 15.971 128.454 17.291 128.324 17.8019ZM139.659 8.84919H136.109L134.671 6.28373L132.115 8.84919H128.565L133.141 4.29828H137.059L139.659 8.84919Z" fill="#C1CFFF"/>
<path d="M5.95036 9.81641C5.88476 9.76914 5.86653 9.70368 5.86653 9.6255C5.86836 9.00187 5.86836 8.37823 5.86653 7.75459C5.86653 7.73096 5.87929 7.70005 5.85742 7.68732C5.83191 7.67277 5.81004 7.70186 5.79 7.71459C5.2688 8.03095 4.74944 8.34914 4.23007 8.66732C4.21549 8.67641 4.20091 8.6855 4.18633 8.69459C4.06788 8.7655 3.99498 8.74732 3.92209 8.62914C3.80728 8.44368 3.6943 8.25823 3.57949 8.07096C3.53028 7.99096 3.48108 7.91277 3.4337 7.83277C3.36627 7.72004 3.3845 7.64914 3.4993 7.58005C3.89111 7.34187 4.28109 7.10368 4.6729 6.86368C4.84784 6.75641 5.02279 6.64914 5.19773 6.54187C5.26334 6.50187 5.26334 6.50005 5.19591 6.46005C4.6328 6.11641 4.07152 5.77277 3.50842 5.43096C3.38085 5.35277 3.36445 5.28732 3.44281 5.15823C3.59953 4.90005 3.75808 4.64186 3.91662 4.3855C3.99681 4.25641 4.06606 4.23823 4.19544 4.31641C4.72757 4.64005 5.25787 4.96368 5.79 5.28732C5.81186 5.30004 5.83373 5.32914 5.85742 5.31823C5.88294 5.3055 5.86836 5.27095 5.86836 5.24732C5.86836 4.62368 5.86836 4.00005 5.86836 3.37641C5.86836 3.22732 5.91209 3.18369 6.06152 3.18369C6.37315 3.18369 6.68477 3.18369 6.99639 3.18369C7.12578 3.18369 7.17498 3.23277 7.17498 3.36368C7.17498 3.99277 7.17498 4.62369 7.17498 5.25278C7.17498 5.2746 7.16222 5.3055 7.18591 5.31823C7.20596 5.32732 7.22418 5.3055 7.24241 5.29459C7.76724 4.97459 8.29026 4.65641 8.81327 4.33641C8.83332 4.32368 8.85336 4.31096 8.87341 4.30005C8.96635 4.24732 9.04471 4.26369 9.1012 4.35459C9.19232 4.49641 9.27797 4.64005 9.36544 4.78368C9.44198 4.90914 9.51852 5.03459 9.59506 5.16005C9.67342 5.28914 9.65702 5.35459 9.52945 5.43278C8.97181 5.77278 8.416 6.11277 7.85836 6.45277C7.77453 6.50368 7.77453 6.5055 7.85654 6.55641C8.41418 6.89641 8.96999 7.23641 9.52763 7.57641C9.65702 7.65641 9.67524 7.72005 9.59688 7.84732C9.43651 8.10914 9.27797 8.37096 9.11578 8.63096C9.04289 8.74914 8.96999 8.76732 8.85154 8.69641C8.31759 8.37095 7.78547 8.0455 7.25152 7.72187C7.22783 7.70732 7.20414 7.67641 7.17862 7.69095C7.15676 7.70368 7.16951 7.73823 7.16951 7.76369C7.16951 8.3855 7.16769 9.0055 7.16951 9.62732C7.16951 9.70732 7.15129 9.77096 7.08569 9.81823C6.7121 9.81641 6.33123 9.81641 5.95036 9.81641Z" fill="#C1CFFF"/>
<path d="M8.97146 23.3564C8.75096 22.9836 8.7382 22.6145 8.73091 22.46C8.69629 21.6854 8.66348 17.4527 8.67077 11.6527C7.20743 11.6582 5.74408 11.6618 4.28074 11.6673C4.37003 17.4618 4.32994 21.6982 4.19691 22.4454C4.1149 22.9163 3.88893 23.2927 3.88893 23.2927C3.88893 23.2927 3.63016 23.7382 3.20738 24.0618C2.56591 24.5509 1.27204 24.6291 -0.0673828 24.0654C-0.0673828 25.36 -0.0655615 26.6545 -0.0655615 27.9509C2.17775 28.4654 4.01103 28.3782 4.83473 27.9509C5.32494 27.6963 5.6803 27.3509 5.6803 27.3509C5.82244 27.2273 6.02473 27.0218 6.18874 26.72C6.40742 26.3182 6.45298 25.9418 6.46027 25.7327C6.47302 25.9418 6.52405 26.3145 6.74638 26.7127C6.91403 27.0109 7.11631 27.2127 7.26028 27.3345C7.26028 27.3345 7.62475 27.6873 8.11314 27.9491C8.93684 28.3909 10.7902 28.4927 13.0462 27.9491C13.0462 26.6563 13.0444 25.3636 13.0444 24.0709C12.8731 24.1236 10.9268 24.7036 9.75872 24.0673C9.58559 23.9727 9.21565 23.7727 8.97146 23.3564Z" fill="#C1CFFF"/>
<path d="M79.0937 17.9109C79.8883 17.8109 80.455 17.6873 80.7976 17.5382C81.4117 17.28 81.7179 16.8764 81.7179 16.3291C81.7179 15.6618 81.4828 15.2018 81.0126 14.9473C80.5425 14.6928 79.8518 14.5655 78.9406 14.5655C77.9183 14.5655 77.1948 14.8146 76.7702 15.3127C76.4659 15.6818 76.2636 16.18 76.1634 16.8073H72.0467C72.136 15.3837 72.5369 14.2128 73.2495 13.2964C74.383 11.8618 76.3274 11.1455 79.0846 11.1455C80.8796 11.1455 82.4724 11.5 83.8665 12.2055C85.2605 12.9128 85.9567 14.2473 85.9567 16.2091V23.6782C85.9567 24.1964 85.9658 24.8237 85.9858 25.56C85.995 25.9218 86.0788 26.2637 86.241 26.6946C86.4287 27.1964 86.6783 27.5709 86.8697 27.8146H82.2282C82.0988 27.4855 82.0077 27.1782 81.9584 26.8891C81.9074 26.6 81.8692 26.2709 81.8382 25.9037C81.2459 26.5418 80.5625 27.0837 79.7899 27.5327C78.8659 28.06 77.8217 28.3237 76.6572 28.3237C75.172 28.3237 73.9438 27.9037 72.9761 27.0618C72.0066 26.22 71.5237 25.0273 71.5237 23.4837C71.5237 21.4818 72.3036 20.0328 73.8618 19.1364C74.7164 18.6491 75.9739 18.3 77.6322 18.0909L79.0937 17.9109ZM81.7033 19.8964C81.43 20.0655 81.1548 20.2018 80.876 20.3073C80.5972 20.4128 80.2163 20.5091 79.7297 20.5982L78.7584 20.7782C77.8472 20.9382 77.1948 21.1327 76.7976 21.36C76.1251 21.7491 75.7898 22.3509 75.7898 23.1673C75.7898 23.8946 75.9957 24.42 76.4058 24.7437C76.8158 25.0673 77.3151 25.2291 77.9037 25.2291C78.8368 25.2291 79.6951 24.96 80.4805 24.4218C81.266 23.8837 81.6742 22.9037 81.7051 21.4782V19.8964H81.7033Z" fill="#C1CFFF"/>
<path d="M90.9461 28.3218C92.3058 28.3218 93.4081 27.2221 93.4081 25.8655C93.4081 24.5088 92.3058 23.4091 90.9461 23.4091C89.5864 23.4091 88.4841 24.5088 88.4841 25.8655C88.4841 27.2221 89.5864 28.3218 90.9461 28.3218Z" fill="#C1CFFF"/>
</g>
<defs>
<clipPath id="clip0_156_102">
<rect width="139.592" height="36" fill="white"/>
</clipPath>
</defs>
</svg>
