<svg width="156" height="36" viewBox="0 0 156 36" fill="none" xmlns="http://www.w3.org/2000/svg">
<g clip-path="url(#clip0_156_153)">
<path d="M39.9435 14.2482C42.4298 16.7399 43.6689 19.743 43.6689 23.2574C43.6689 26.7717 42.4258 29.7788 39.9435 32.2665C37.4571 34.7582 34.4605 36 30.9537 36C27.4469 36 24.4463 34.7541 21.964 32.2665C19.4777 29.7748 18.2385 26.7717 18.2385 23.2574C18.2385 19.743 19.4817 16.7359 21.964 14.2482C24.4463 11.7606 27.4469 10.5147 30.9537 10.5147C34.4605 10.5147 37.4612 11.7606 39.9435 14.2482ZM30.9537 13.7653C28.3337 13.7653 26.1025 14.6906 24.2519 16.5411C22.4054 18.3916 21.4821 20.6317 21.4821 23.2574C21.4821 25.883 22.4094 28.1231 24.26 29.9777C26.1147 31.8363 28.3418 32.7616 30.9537 32.7616C33.5656 32.7616 35.8049 31.8323 37.6555 29.9777C39.5021 28.119 40.4253 25.8789 40.4253 23.2574C40.4253 20.6358 39.5021 18.3957 37.6555 16.5411C35.809 14.6906 33.5737 13.7653 30.9537 13.7653Z" fill="#C1CFFF"/>
<path d="M66.0744 10.8394H69.3058V28.3747C69.0264 30.3754 68.2044 32.0676 66.8357 33.4474C65.1795 35.1072 63.1871 35.9391 60.8587 35.9391C58.5303 35.9391 56.538 35.1113 54.8899 33.4555C53.2377 31.7998 52.4116 29.8072 52.4116 27.4738V10.8394H55.6431V27.4738C55.6431 28.9063 56.1533 30.1319 57.1738 31.1545C58.1942 32.1772 59.4212 32.6885 60.8628 32.6885C62.3044 32.6885 63.5435 32.1813 64.5599 31.1627C65.5763 30.1481 66.0825 28.9185 66.0825 27.4738V10.8394H66.0744Z" fill="#C1CFFF"/>
<path d="M84.56 24.8969H81.6242V32.863H78.4089V7.96619H85.459C87.4554 8.23808 89.144 9.06189 90.5208 10.4417C92.1648 12.1015 92.9909 14.094 92.9909 16.4153C92.9909 18.7366 92.1689 20.7616 90.5208 22.4214C89.3829 23.5617 88.5123 24.207 87.9129 24.349L93.4242 32.859H89.5287L84.56 24.8928V24.8969ZM81.6242 11.2046V21.6625H84.56C85.9895 21.6625 87.2124 21.1512 88.2328 20.1285C89.2533 19.1059 89.7635 17.8681 89.7635 16.4193C89.7635 14.9706 89.2533 13.7491 88.2328 12.7305C87.2124 11.7159 85.9895 11.2046 84.56 11.2046H81.6242Z" fill="#C1CFFF"/>
<path d="M114.433 10.8394V14.0615H104.261V32.5019H114.433V35.7403H101.049V10.8394H114.433Z" fill="#C1CFFF"/>
<path d="M129.472 22.9611C127.711 22.3686 126.285 21.5286 125.196 20.4329C124.103 19.3372 123.556 17.9817 123.556 16.3625C123.556 14.7433 124.123 13.4122 125.257 12.2719C126.391 11.1316 127.763 10.5594 129.379 10.5594C130.995 10.5594 132.339 11.1234 133.477 12.2557C134.117 12.8766 134.656 13.8668 135.093 15.2262L132.173 16.3788C131.821 15.4251 131.501 14.8001 131.21 14.512C130.703 14.0129 130.092 13.7653 129.379 13.7653C128.666 13.7653 128.039 14.0169 127.533 14.5201C127.026 15.0233 126.771 15.6402 126.771 16.3625C126.771 17.0849 127.026 17.7058 127.533 18.2131C128.104 18.7731 128.889 19.2885 129.893 19.7552C131.841 20.3882 133.489 21.3825 134.846 22.742C136.369 24.2476 137.13 26.0737 137.13 28.2205C137.13 30.3673 136.373 32.2016 134.854 33.7234C133.335 35.2452 131.513 36.0041 129.379 36.0041C127.245 36.0041 125.411 35.2411 123.896 33.7153C122.685 32.5019 121.92 30.8258 121.596 28.6872L124.718 27.5509C124.913 29.3852 125.395 30.6879 126.164 31.4549C127.055 32.3477 128.124 32.7941 129.379 32.7941C130.635 32.7941 131.704 32.3477 132.594 31.4549C133.485 30.5621 133.931 29.4826 133.931 28.2164C133.931 26.9503 133.485 25.8871 132.594 24.9943C131.744 24.142 130.703 23.4643 129.472 22.9571V22.9611Z" fill="#C1CFFF"/>
<path d="M0 24.8969V0H3.21525V21.6625H155.368V24.9009H0V24.8969Z" fill="#C1CFFF"/>
</g>
<defs>
<clipPath id="clip0_156_153">
<rect width="155.368" height="36" fill="white"/>
</clipPath>
</defs>
</svg>
