<svg width="229" height="26" viewBox="0 0 229 26" fill="none" xmlns="http://www.w3.org/2000/svg">
<g clip-path="url(#clip0_12_16)">
<path d="M16.6545 23.4167H18.7364V25.5H16.6545H14.5727H12.4909H10.4091H8.32727H6.24545H4.16364H2.08182H0V23.4167H2.08182H4.16364H6.24545H8.32727H10.4091H12.4909H14.5727H16.6545Z" fill="#003AFF"/>
<path d="M42.5523 25.5H40.4705V23.4167V21.3333V19.25V17.1667V15.0833H38.3887H36.3069H34.2251H32.1433H30.0614H27.9796V17.1667V19.25V21.3333V23.4167V25.5H25.8978H23.816V23.4167V21.3333V19.25V17.1667V15.0833V13V10.9167V8.83333V6.75V4.66667V2.58333V0.5H25.8978H27.9796V2.58333V4.66667V6.75V8.83333V10.9167H30.0614H32.1433H34.2251H36.3069H38.3887H40.4705V8.83333V6.75V4.66667V2.58333V0.5H42.5523H44.6342V2.58333V4.66667V6.75V8.83333V10.9167V13V15.0833V17.1667V19.25V21.3333V23.4167V25.5H42.5523ZM68.4502 25.5H66.3683H64.2865H62.2047H60.1229H58.0411H55.9593H53.8774V23.4167V21.3333H55.9593H58.0411H60.1229H62.2047H64.2865H66.3683H68.4502H70.532V23.4167V25.5H68.4502ZM70.532 21.3333V19.25V17.1667V15.0833V13V10.9167V8.83333V6.75V4.66667H72.6138H74.6956V6.75V8.83333V10.9167V13V15.0833V17.1667V19.25V21.3333H72.6138H70.532ZM53.8774 21.3333H51.7956H49.7138V19.25V17.1667V15.0833V13V10.9167V8.83333V6.75V4.66667H51.7956H53.8774V6.75V8.83333V10.9167V13V15.0833V17.1667V19.25V21.3333ZM70.532 4.66667H68.4502H66.3683H64.2865H62.2047H60.1229H58.0411H55.9593H53.8774V2.58333V0.5H55.9593H58.0411H60.1229H62.2047H64.2865H66.3683H68.4502H70.532V2.58333V4.66667ZM96.4298 25.5H94.348H92.2662H90.1843H88.1025H86.0207H83.9389H81.8571H79.7752V23.4167V21.3333V19.25V17.1667V15.0833V13V10.9167V8.83333V6.75V4.66667V2.58333V0.5H81.8571H83.9389V2.58333V4.66667V6.75V8.83333V10.9167V13V15.0833V17.1667V19.25V21.3333H86.0207H88.1025H90.1843H92.2662H94.348H96.4298H98.5116V23.4167V25.5H96.4298ZM120.246 25.5H118.164H116.082H114H111.919H109.837H107.755H105.673H103.591V23.4167V21.3333V19.25V17.1667V15.0833V13V10.9167V8.83333V6.75V4.66667V2.58333V0.5H105.673H107.755V2.58333V4.66667V6.75V8.83333V10.9167V13V15.0833V17.1667V19.25V21.3333H109.837H111.919H114H116.082H118.164H120.246H122.328V23.4167V25.5H120.246ZM146.144 25.5H144.062H141.98H139.898H137.816H135.735H133.653H131.571V23.4167V21.3333H133.653H135.735H137.816H139.898H141.98H144.062H146.144H148.225V23.4167V25.5H146.144ZM148.225 21.3333V19.25V17.1667V15.0833V13V10.9167V8.83333V6.75V4.66667H150.307H152.389V6.75V8.83333V10.9167V13V15.0833V17.1667V19.25V21.3333H150.307H148.225ZM131.571 21.3333H129.489H127.407V19.25V17.1667V15.0833V13V10.9167V8.83333V6.75V4.66667H129.489H131.571V6.75V8.83333V10.9167V13V15.0833V17.1667V19.25V21.3333ZM148.225 4.66667H146.144H144.062H141.98H139.898H137.816H135.735H133.653H131.571V2.58333V0.5H133.653H135.735H137.816H139.898H141.98H144.062H146.144H148.225V2.58333V4.66667ZM176.205 25.5H174.123V23.4167V21.3333H172.041H169.96V19.25V17.1667H172.041H174.123V15.0833V13V10.9167V8.83333V6.75V4.66667V2.58333V0.5H176.205H178.287V2.58333V4.66667V6.75V8.83333V10.9167V13V15.0833V17.1667V19.25V21.3333V23.4167V25.5H176.205ZM159.551 25.5H157.469V23.4167V21.3333V19.25V17.1667V15.0833V13V10.9167V8.83333V6.75V4.66667V2.58333V0.5H159.551H161.632V2.58333V4.66667V6.75V8.83333V10.9167V13V15.0833V17.1667H163.714H165.796V19.25V21.3333H163.714H161.632V23.4167V25.5H159.551ZM169.96 17.1667H167.878H165.796V15.0833V13H167.878H169.96V15.0833V17.1667ZM200.021 25.5H197.939V23.4167V21.3333V19.25V17.1667V15.0833V13H195.857H193.776H191.694H189.612H187.53V15.0833V17.1667V19.25V21.3333V23.4167V25.5H185.448H183.367V23.4167V21.3333V19.25V17.1667V15.0833V13V10.9167V8.83333V6.75V4.66667H185.448H187.53V6.75V8.83333H189.612H191.694H193.776H195.857H197.939V6.75V4.66667H200.021H202.103V6.75V8.83333V10.9167V13V15.0833V17.1667V19.25V21.3333V23.4167V25.5H200.021ZM197.939 4.66667H195.857H193.776H191.694H189.612H187.53V2.58333V0.5H189.612H191.694H193.776H195.857H197.939V2.58333V4.66667ZM217.592 25.5H215.51V23.4167V21.3333V19.25V17.1667V15.0833V13V10.9167V8.83333H217.592H219.673V10.9167V13V15.0833V17.1667V19.25V21.3333V23.4167V25.5H217.592ZM219.673 8.83333V6.75V4.66667H221.755H223.837V6.75V8.83333H221.755H219.673ZM215.51 8.83333H213.428H211.346V6.75V4.66667H213.428H215.51V6.75V8.83333ZM223.837 4.66667V2.58333V0.5H225.919H228.001V2.58333V4.66667H225.919H223.837ZM211.346 4.66667H209.264H207.183V2.58333V0.5H209.264H211.346V2.58333V4.66667Z" fill="white"/>
</g>
<defs>
<clipPath id="clip0_12_16">
<rect width="229" height="25" fill="white" transform="translate(0 0.5)"/>
</clipPath>
</defs>
</svg>